<?xml version="1.0" encoding="utf-8"?>
<!-- Generator: Adobe Illustrator 18.1.1, SVG Export Plug-In . SVG Version: 6.00 Build 0)  -->
<svg version="1.1" id="Layer_1" xmlns="http://www.w3.org/2000/svg" xmlns:xlink="http://www.w3.org/1999/xlink" x="0px" y="0px"
	 viewBox="0 0 127.6 113.4" enable-background="new 0 0 127.6 113.4" xml:space="preserve">
<g>
	<path fill="#FFFFFF" stroke="#FFFFFF" stroke-width="0.2648" stroke-miterlimit="10" d="M91.9,66.9c4-0.4,7.6-1.7,11-3.7
		c5-2.9,8.5-7.1,10.3-12.6c0.9-2.7,1.2-5.4,0.9-8.2c-0.7-9.5-7.5-18.3-18.1-20.6c-2-0.4-4-0.6-6.1-0.5c-6,0.4-11.5,2.3-16,6.5
		c-3.3,3-5.4,6.7-6.3,11.1c-0.5,2.1-0.7,4.3-0.5,6.5c0.3,5.1,2.3,9.6,5.8,13.4c3.7,4.1,8.4,6.6,13.8,7.7c1.2,0.2,2.3,0.4,3.4,0.5
		c-4.9,0.2-9.5-1.2-13.7-4c-4.1-2.8-7.1-6.6-9-11.3c-0.2,1.4-1.2,2.2-2.2,2.9C65.1,54.7,65,54.8,65,55c-0.2,0.5-0.3,0.5-0.8,0.4
		c0.1,0.4,0.2,0.7,0.3,1.1c0.3,1,0.7,2.1,0.7,3.2c0,0.6,0,1.1-0.3,1.6c-0.2,0.3-0.4,0.3-0.6,0.1c-0.2-0.2-0.3-0.4-0.5-0.6
		c-0.1,0.6-0.1,1.2-0.2,1.8c-0.2,1.1-0.6,2.2-1.1,3.3c-0.2,0.6-0.6,1.1-0.9,1.7c-0.1,0.3-0.4,0.4-0.7,0.4c-0.4,0.1-0.8,0.3-1.2,0.4
		c-0.7,0.1-1.4,0.2-2.1,0.2c-0.8,0.1-1.6,0.1-2.4,0.1c-0.9,0-1.5-0.4-2.1-1.1c-0.3-0.5-0.8-0.8-1.2-1.1c-0.8-0.5-1.6-0.9-2.6-1.2
		c-1-0.2-1.1-0.8-0.9-1.6c0.2-0.9,0.6-1.6,1.1-2.3c0.4-0.4,0.8-0.8,1.2-1.2c0.1-0.2,0.3-0.3,0.4-0.4c-0.1,0.1-0.2,0.3-0.3,0.4
		c-0.4,0.4-0.7,0.8-1.1,1.2c-0.6,0.7-1,1.5-1.2,2.4c0,0.2,0,0.4,0,0.7c0,0.4,0.3,0.6,0.7,0.7c1,0.2,1.9,0.7,2.8,1.2
		c0.6,0.4,1.1,0.8,1.5,1.4c0.4,0.7,1.1,0.8,1.9,0.8c0.5,0,1.1-0.1,1.6-0.1c0.8-0.1,1.6-0.1,2.3-0.2c0.3,0,0.5-0.2,0.8-0.2
		c0.1-0.1,0.3-0.2,0.4-0.2c0.5,0,0.7-0.4,0.8-0.8c0.5-1.3,1-2.5,1.4-3.8c0.2-0.6,0.2-1.3,0.2-2c0-0.3,0.1-0.7,0.2-1
		c0.1-0.4,0.4-0.5,0.7-0.2c0.1,0.1,0.2,0.3,0.4,0.4c0-0.4,0.1-0.8,0-1.2c-0.1-0.6-0.3-1.2-0.5-1.8c-0.2-0.7-0.4-1.5-0.6-2.2
		c0-0.1,0-0.2,0-0.4c0-0.6,0.2-0.8,0.8-0.6c0-0.4,0-0.8-0.1-1.2c-0.1-0.9-0.2-1.8-0.3-2.6c-0.1-0.7-0.4-1.4-0.9-2
		c-0.3-0.5-0.7-1-1-1.5c-0.1-0.2-0.3-0.4-0.4-0.6c-0.3-0.5-0.2-0.9,0.2-1.3c-0.2-0.2-0.3-0.5-0.5-0.7c-0.9-1.3-0.9-2.8-0.8-4.3
		c0-0.3,0.2-0.4,0.5-0.4c0.2,0,0.3,0,0.5,0c0-0.3-0.1-0.5-0.1-0.8c0.2,0,0.4,0.1,0.6,0.1c-0.1-0.1-0.2-0.3-0.3-0.4
		c-0.8-0.8-1.3-1.7-1.6-2.8c-0.6-2.4-2-4.2-4-5.6c-3.5-2.6-7.4-4.4-11.7-5.2c-2.6-0.5-5.1-0.3-7.6,0.7c-0.1,0-0.1,0-0.2,0.1
		c0,0,0-0.1,0-0.1c0.7-0.2,1.4-0.5,2.1-0.7c2.6-0.6,5.2-0.5,7.7,0.2c3.6,1,7,2.5,10.1,4.7c0.4,0.3,0.9,0.7,1.3,1.1
		c1.4,1.2,2.3,2.7,2.8,4.4c0.3,1.1,0.9,2.1,1.8,2.9c0.3,0.3,0.6,0.7,0.8,1.1c0.3,0.5,0.1,0.7-0.4,0.8c0.2,0.3,0.4,0.6,0.7,0.9
		c0.2,0.3,0.1,0.5-0.1,0.7c-0.1,0.1-0.3,0.1-0.5,0c-0.2-0.1-0.3-0.3-0.4-0.4c-0.2-0.3-0.5-0.5-1-0.6c0.1,1.3,0.1,2.5,1.1,3.5
		c0.5,0.5,0.9,1.2,1.4,1.8c0.2,0.2,0.3,0.4,0.5,0.6c0.4,0.5,0.7,0.9,0.8,1.5c0.1,0.5,0,1-0.4,1.3c0,0-0.1,0.1-0.1,0.2
		c0.1,1.5,0.2,3,0.3,4.5c0,0,0,0.1,0,0.2c0.1-0.1,0.1-0.2,0.2-0.3c0.3-0.7,0.7-1.2,1.3-1.6c0.2-0.2,0.5-0.4,0.7-0.7
		c0.1-0.1,0.1-0.3,0.1-0.5c-0.7-1.9-1.1-3.8-1.3-5.9c-0.2-3,0.1-6,1-8.9C69.2,29.6,73.6,24.9,80,22c2.6-1.2,5.4-1.9,8.3-2.3
		c1.9-0.3,3.9-0.2,5.8,0.1c5.3,0.6,9.9,2.9,13.9,6.4c3.9,3.5,6.4,7.8,7.2,12.9c1.2,7.2-0.6,13.7-5.1,19.4c-3.3,4.2-7.7,6.8-12.9,8
		C95.4,66.8,93.7,66.9,91.9,66.9z"/>
	<path fill="#FFFFFF" stroke="#FFFFFF" stroke-width="0.2648" stroke-miterlimit="10" d="M72.8,11.2c-1.1-0.2-2.1-0.4-3.2-0.6
		c-1.5-0.2-3-0.4-4.4-0.5C63.7,10,62.3,10,60.9,10c-6.3,0-12.3,1.2-18.2,3.4c-5.7,2.2-10.8,5.3-15.3,9.3c-5.1,4.5-9.1,9.8-11.8,16
		c-1.5,3.4-2.6,6.8-3.2,10.5c-0.5,2.8-0.7,5.5-0.7,8.3c0.1,6,1.2,11.7,3.6,17.2c2.2,5.1,5.2,9.6,9,13.7c5,5.3,11,9.3,17.8,12.1
		c3.6,1.4,7.3,2.5,11.1,3c2.7,0.4,5.4,0.6,8.2,0.6c1.5,0,3-0.1,4.5-0.3c1.8-0.2,3.7-0.4,5.5-0.7c6-1.1,11.6-3.3,16.7-6.5
		c4.7-2.9,8.9-6.4,12.4-10.7c3.6-4.4,6.2-9.4,8.1-14.8c0-0.1,0.1-0.3,0.2-0.4c-2.9,9.2-8.2,16.8-15.7,22.9c3.1-2.4,5.9-5.1,8.3-8.2
		c2.4-3.1,4.4-6.5,6-10.2c-0.1,1.2-4.1,7.9-6.3,10.6c-2.6,3.2-5.5,6.1-8.9,8.6c-3.3,2.5-6.8,4.6-10.6,6.2c6-2.4,11.2-5.9,15.9-10.4
		c-0.3,0.6-3.6,3.3-5.7,4.9c-2,1.5-4.1,2.8-6.3,4c11.3-6,19.4-14.8,23.9-26.9c-0.2,0.5-0.4,1-0.6,1.5c-2.9,7.3-7.3,13.7-13.3,18.8
		c-6.1,5.2-13,9.1-20.9,11c-2.3,0.6-4.6,1-6.9,1.2c-2.1,0.2-4.2,0.4-6.2,0.4c-1.4,0-2.9,0-4.3-0.2c-1.8-0.2-3.5-0.4-5.3-0.6
		c-3-0.5-5.9-1.3-8.8-2.4c-6.4-2.3-12.2-5.8-17.2-10.5c-5.5-5.1-9.6-11.1-12.3-18.1c-1.1-2.9-1.9-5.9-2.4-9
		c-0.5-3.2-0.7-6.3-0.5-9.5c0.2-5.7,1.5-11.1,3.8-16.3c2-4.5,4.5-8.6,7.8-12.3c5.3-6.1,11.7-10.6,19.2-13.7
		c3.6-1.5,7.4-2.6,11.3-3.2c3-0.5,5.9-0.8,8.9-0.7c2,0.1,4,0.3,6.1,0.5c1.3,0.1,2.6,0.3,3.9,0.6C66,9,60.5,8.7,54.8,9.5
		c1.6-0.1,3.1-0.3,4.6-0.3c1.5,0,3.1,0,4.6,0.1c1.5,0.1,3,0.3,4.6,0.4c-8.7-1-17.2-0.2-25.4,2.9c3.4-1.2,6.9-2.1,10.4-2.6
		c3.6-0.5,7.2-0.6,10.7-0.4c-6-0.2-11.9,0.3-17.6,2.1c0.1,0,0.2,0,0.2-0.1c2.5-0.7,5-1.2,7.6-1.5c2.2-0.3,4.5-0.4,6.7-0.4
		c1.7,0,3.5,0.2,5.2,0.4c2,0.2,4,0.6,6,0.9C72.5,11.1,72.6,11.1,72.8,11.2L72.8,11.2z M84.2,99.7C84.2,99.7,84.2,99.7,84.2,99.7
		c0.4-0.1,0.7-0.3,1-0.4c0,0,0,0,0-0.1C84.9,99.4,84.5,99.5,84.2,99.7z"/>
	<path fill="#FFFFFF" stroke="#FFFFFF" stroke-width="0.2648" stroke-miterlimit="10" d="M81.2,79.1C81.1,79,81.1,79,81,79
		c-1.1-0.6-1.5-1.4-1.2-2.6c0.3-1.1,1-2,1.9-2.6c1.3-1,2.8-1.5,4.3-1.9c1.7-0.4,3.4-0.4,5.2-0.3c0,0.1,0,0.2,0,0.3
		c-0.4,0-0.7,0.1-1,0.1c-1.1,0.2-2.1,0.8-3,1.5c-1.7,1.3-2.9,3-4.2,4.7c-0.1,0.2-0.3,0.4-0.5,0.7c1.4,0,2.6-0.4,3.4-1.6
		c0.2-0.3,0.4-0.6,0.5-0.9c0.2-0.3,0.2-0.3,0.5-0.3c-0.5,1.3-1.3,2.4-2.7,2.8c-0.6,0.2-1.2,0.2-1.8,0.3c-0.1,0-0.3,0.1-0.3,0.2
		c-1.2,1.7-2.4,3.4-3.9,5c0,0,0,0-0.1,0.1c1.3-0.4,2.4-0.9,3.4-1.7c0.3-0.3,0.6-0.6,0.9-0.9c1-0.9,2.1-1.5,3.5-1.5
		c0.5,0,0.7,0.2,0.7,0.6c0.3-0.1,0.3-0.6,0.8-0.6c0.3,0,0.6,0,1.1-0.1c-0.2,0.3-0.4,0.5-0.5,0.6c-0.7,0.9-1.5,1.7-2.2,2.6
		c-0.2,0.2-0.3,0.4-0.5,0.6c-0.1,0.1-0.1,0.2-0.1,0.3c0,0,0,0.1,0.1,0.1c0.2-0.1,0.4-0.1,0.5-0.2c0.7-0.5,1.4-1,2.1-1.5
		c0.7-0.6,1.4-1.1,2.1-1.7c0.1-0.1,0.2-0.2,0.2-0.4c0.1-0.3,0.3-0.6,0.6-0.6c0.3,0,0.5,0.1,0.5,0.3c0,0.3-0.1,0.5-0.4,0.5
		c0,0-0.1,0-0.1,0c0.6,0.1,1.1,0.1,1.6-0.2c0.3-0.2,0.6-0.5,0.9-0.7c0.2-0.1,0.4-0.2,0.6,0c0.1,0.2,0,0.4-0.2,0.5
		c-0.4,0.2-0.8,0.4-1.2,0.6c-0.1,0.1-0.3,0.1-0.4,0.2c-0.6,0.5-1.3,1.1-1.9,1.6c0,0-0.1,0.1-0.2,0.1c0.3,0,0.6,0,0.8,0
		c0.5,0,0.7,0.5,0.4,1c-0.1,0.1-0.2,0.2-0.3,0.3c0,0,0,0,0,0.1c0.1-0.1,0.3-0.1,0.4-0.2c0.9-0.7,1.7-1.5,2.6-2.2
		c0.4-0.3,0.7-0.6,1.1-0.9c0.1-0.1,0.2-0.2,0.2-0.3c0.1-0.3,0.3-0.6,0.6-0.6c0.2,0,0.4,0,0.5,0.3c0.1,0.3,0,0.5-0.3,0.6
		c0,0-0.1,0-0.1,0c0.5,0.2,1.2,0,1.6-0.3c0.2-0.2,0.4-0.3,0.6-0.5c0.1-0.1,0.3-0.2,0.4-0.2c0.1,0,0.3,0,0.4,0c0.1,0,0,0.3,0,0.4
		c-0.1,0.1-0.2,0.3-0.3,0.4c-0.2,0.1-0.5,0.3-0.7,0.3c-0.4,0.1-0.8,0.3-1.1,0.6c-0.5,0.5-1.1,1-1.7,1.4c0.3,0,0.5,0,0.8,0
		c0.5,0,0.8,0.5,0.4,1c-0.1,0.1-0.2,0.2-0.2,0.4c0.1-0.1,0.2-0.1,0.3-0.2c1-0.8,1.9-1.6,2.9-2.5c0.1-0.1,0.1-0.2,0.1-0.3
		c0-1.2-0.3-2.3-0.6-3.5c-0.3-1.2-0.6-2.3-0.5-3.5c0.1-1.3,0.4-2.6,0.8-3.9c0.5-1.6,1.1-3.2,1.7-4.7c0,0,0,0,0.1-0.1
		c-0.2,0.8-0.3,1.6-0.5,2.4c-0.5,2.4-0.9,4.8-0.9,7.2c0,0.9,0.1,1.9,0.2,2.8c0.1,1.5,0.1,3.1-0.3,4.6c0,0.1-0.1,0.2-0.1,0.3
		c0-0.3,0.1-0.5,0.1-0.8c0,0,0,0-0.1,0c-0.1,0.1-0.1,0.1-0.2,0.2c-0.8,0.7-1.6,1.4-2.4,2c-0.2,0.2-0.6,0.3-0.8,0.4
		c-0.2,0.1-0.4,0-0.6-0.2c-0.2-0.2-0.2-0.4,0-0.6c0.2-0.2,0.3-0.4,0.5-0.6c-0.2,0-0.3,0-0.5,0c-0.6,0.2-1.2,0.4-1.6,0.9
		c-0.1,0.2-0.3,0.3-0.5,0.5c-0.2,0.1-0.4,0.2-0.5,0c-0.2-0.2,0-0.3,0.1-0.5c0.1-0.1,0.3-0.3,0.4-0.4c1-0.5,1.8-1.3,2.6-2
		c0.2-0.2,0.4-0.3,0.6-0.5c-0.4-0.1-0.8-0.1-1.2-0.2c-0.5,0.4-1,0.9-1.6,1.4c-0.7,0.6-1.4,1.2-2.1,1.8c-0.2,0.2-0.5,0.3-0.8,0.4
		c-0.2,0.1-0.4,0-0.6-0.2c-0.2-0.2-0.2-0.4,0-0.6c0.2-0.2,0.3-0.4,0.5-0.6c-0.1,0-0.3,0-0.4,0c-0.6,0.1-1.2,0.3-1.6,0.8
		c-0.2,0.2-0.3,0.4-0.5,0.5c-0.2,0.1-0.4,0.2-0.5,0c-0.2-0.2,0-0.4,0.1-0.5c0.2-0.2,0.3-0.3,0.5-0.4c1.2-0.6,2-1.6,3.1-2.4
		c-0.4-0.1-0.8-0.1-1.3-0.2c-0.8,0.7-1.7,1.4-2.5,2.1c-0.4,0.4-0.9,0.7-1.3,1c-0.3,0.2-0.7,0.4-1.1,0.5c-0.3,0.1-0.6-0.1-0.6-0.5
		c0-0.3,0.1-0.5,0.1-0.8c-0.1,0.1-0.3,0.2-0.4,0.3c-0.5,0.3-0.9,0.7-1.4,0.9c-0.7,0.3-1.2-0.1-1.3-0.8c0-0.3,0-0.6,0-0.9
		c0,0,0,0,0,0c-1.1,0.9-2.5,1.4-3.8,1.8c-0.2,0.1-0.4,0.2-0.5,0.3c-1.7,1.6-3.5,3-5.6,4.1c-1.1,0.6-2.2,1-3.5,1.2
		c-0.6,0.1-1.2,0.1-1.8,0c-1.2-0.3-1.5-1.3-0.7-2.2c0.6-0.6,1.3-1,2.1-1.3c1.7-0.7,3.4-1.1,5.2-1.5c1-0.2,2.1-0.4,3.1-0.6
		c0.2,0,0.4-0.1,0.5-0.3c1.2-1.6,2.5-3.1,3.7-4.7C80.7,79.7,80.9,79.4,81.2,79.1z M76.1,85.5c-0.3,0-0.5,0.1-0.7,0.1
		c-2.1,0.4-4.2,0.8-6.2,1.4c-0.9,0.3-1.9,0.7-2.7,1.3c-0.3,0.2-0.5,0.5-0.7,0.8c-0.2,0.4-0.1,0.8,0.3,1c0.2,0.1,0.5,0.2,0.8,0.3
		c1,0.1,1.9,0,2.8-0.4c2.4-0.9,4.5-2.4,6.3-4.3C76,85.6,76.1,85.5,76.1,85.5z M89.2,71.9C89.2,71.9,89.2,71.8,89.2,71.9
		c-0.8,0-1.7,0-2.5,0.2c-1.7,0.3-3.3,0.8-4.7,1.9c-0.9,0.7-1.6,1.4-1.9,2.5c-0.3,1,0.1,1.8,1,2.2c0.2,0.1,0.3,0.1,0.4-0.1
		c0.3-0.4,0.6-0.7,1-1.1C84.6,75.3,86.5,73.1,89.2,71.9z M86,80.8C86,80.8,86,80.7,86,80.8c-0.4,0.1-0.8,0.2-1.1,0.4
		c-1,0.7-1.8,1.5-2.4,2.6c-0.1,0.1-0.1,0.2-0.2,0.4c-0.1,0.3,0.1,0.6,0.4,0.5c0.3-0.1,0.5-0.2,0.8-0.3c0.9-0.6,1.8-1.3,2.4-2.2
		c0.2-0.2,0.3-0.5,0.4-0.8C86.5,80.9,86.4,80.8,86,80.8z"/>
	<path fill="#FFFFFF" stroke="#FFFFFF" stroke-width="0.2648" stroke-miterlimit="10" d="M20.1,68.1c0.1-0.4,0.3-0.7,0.4-1.1
		c0.1-0.2,0.2-0.3,0.3-0.5c0.3-0.4,0.5-0.4,0.8-0.1c0.3,0.3,0.7,0.7,1,1c0.2,0.2,0.4,0.5,0.7,0.8c0.1-0.2,0.1-0.4,0.2-0.5
		c0.1-0.1,0.1-0.3,0.2-0.4c0.4-0.7,0.8-0.7,1.3-0.2c0.2,0.2,0.4,0.5,0.6,0.8c0.2-0.3,0.5-0.5,0.7-0.8c0.7-0.9,1.6-1.6,2.5-2.2
		c0.1-0.1,0.2-0.1,0.3-0.2c0.2-0.1,0.3,0,0.4,0.2c0.2,0.6,0.7,1,1.2,1.5c0.5,0.4,0.9,0.5,1.4,0.1c0.6-0.4,1.2-0.2,1.7,0.2
		c0.2,0.1,0.3,0.3,0.5,0.4c0,0,0,0,0.1-0.1c-0.1-0.1-0.2-0.3-0.4-0.4c-0.4-0.4-0.9-0.5-1.4-0.6c-0.1,0-0.2,0-0.3-0.1
		c-0.3-0.1-0.3-0.3-0.1-0.5c0.2-0.2,0.4-0.4,0.6-0.5c0.4-0.2,0.8-0.3,1.2-0.5c0.1,0,0.4,0,0.4,0.1c0.1,0.1,0,0.3,0,0.4
		c0,0.1-0.1,0.3-0.2,0.4c0.1-0.1,0.1-0.3,0.2-0.4c0.1-0.3,0-0.4-0.3-0.4c-0.7,0.1-1.2,0.4-1.7,0.9c-0.2,0.2-0.1,0.3,0.2,0.4
		c0.5,0.1,1,0.2,1.3,0.5c0.2,0.2,0.4,0.5,0.6,0.8c0,0.1,0,0.2,0,0.3c-0.1,0-0.2,0-0.3-0.1c-0.3-0.2-0.5-0.4-0.8-0.6
		c-0.3-0.2-0.6-0.3-0.9-0.1c-0.2,0.1-0.5,0.2-0.7,0.4c-0.4,0.2-0.7,0.2-1.1,0c-0.6-0.4-1-0.9-1.4-1.5c-0.1-0.1-0.1-0.2-0.2-0.3
		c-0.3,0.2-0.5,0.4-0.8,0.7c-0.8,0.6-1.4,1.3-2,2c-0.1,0.1-0.1,0.2-0.2,0.3c-0.4,0.4-0.7,0.4-1.1,0c-0.1-0.1-0.2-0.3-0.4-0.4
		c-0.1-0.1-0.2-0.2-0.4-0.3c-0.1,0.1-0.2,0.3-0.2,0.4C24.1,68,24,68.2,24,68.4c-0.2,0.6-0.5,0.8-1,0.3c-0.4-0.4-0.8-0.8-1.2-1.2
		c-0.1-0.1-0.2-0.2-0.3-0.3c0,0-0.1,0-0.1,0c-0.2,0.7-0.4,1.3-0.6,2c-0.1,0.2-0.1,0.4-0.2,0.6c-0.1,0.1-0.3,0.3-0.4,0.3
		c-0.1,0-0.3-0.2-0.4-0.3c-0.2-0.3-0.3-0.7-0.5-1c-0.3-0.8-0.8-1.4-1.5-2c-0.8-0.6-1.2-1.5-1.5-2.4c-0.5-1.4-0.8-2.9-0.9-4.4
		c-0.1-1-0.1-2-0.2-3c-0.1-2.9,0.5-5.7,1.8-8.3c1.5-3,2.9-6,4.4-9c2.1-4.1,5.1-7.4,8.7-10.2c0.4-0.3,0.8-0.6,1.2-0.8
		c-0.5,0.4-0.9,0.8-1.4,1.2c-4,3.3-6.9,7.3-9,12.1c-1,2.4-2.1,4.7-3.1,7c-0.7,1.6-1.2,3.2-1.3,4.9c-0.2,1.5-0.1,3,0.2,4.5
		c0.3,1.8,0.6,3.6,1,5.4c0.1,0.5,0.3,0.9,0.5,1.3c0.1,0.2,0.3,0.5,0.5,0.7C19.2,66.6,19.9,67.2,20.1,68.1z"/>
	<path fill="#FFFFFF" stroke="#FFFFFF" stroke-width="0.2648" stroke-miterlimit="10" d="M50.8,80.6c-0.5,0.5-0.9,1-1.4,1.6
		c-0.5,0.6-1.1,1.2-1.6,1.8c-0.1,0.1-0.2,0.3-0.3,0.4c0,0,0,0.1,0,0.2c0.1,0,0.1,0,0.2,0c0.3-0.1,0.5-0.2,0.7-0.4
		c0.9-0.7,1.8-1.4,2.7-2.1c0.6-0.5,1.1-1,1.7-1.5c0.1-0.1,0.2-0.1,0.3-0.1c0.3,0,0.7,0,1.1,0c-0.1,0.1-0.2,0.2-0.2,0.3
		c-1,1.1-2,2.2-3,3.3c-0.1,0.1-0.1,0.1-0.1,0.2c0,0.1-0.1,0.2,0,0.2c0,0.1,0.2,0.1,0.2,0.1c0.4-0.1,0.8-0.2,1.1-0.3
		c0.9-0.4,1.7-1,2.4-1.7c0.4-0.4,0.6-0.8,0.8-1.4c0-0.2,0.1-0.4,0.2-0.6c0-0.1,0.2-0.2,0.3-0.1c0.1,0,0.2,0.2,0.2,0.3
		c-0.1,0.4-0.2,0.7-0.4,1.1c-0.2,0.3-0.4,0.6-0.7,0.9c0.4,0,0.8-0.1,1.1-0.4c0.8-1.1,2-1.6,3.3-1.9c0.2,0,0.4,0,0.7,0
		c0.5,0,0.8,0.5,0.6,1c-0.2,0.3-0.4,0.5-0.7,0.7c-0.7,0.4-1.5,0.6-2.3,0.6c-0.4,0-0.7,0.2-0.9,0.5c-0.1,0.2-0.3,0.4-0.4,0.6
		c-0.2,0.5-0.1,0.7,0.5,0.7c0.4,0,0.8-0.1,1.1-0.2c1-0.3,1.9-1,2.7-1.7c0.1-0.1,0.1-0.1,0.2-0.2c0.8-0.7,1.6-1.3,2.4-2
		c0.1-0.1,0.2-0.2,0.2-0.4c0-0.3,0.2-0.6,0.5-0.7c0.2-0.1,0.5-0.1,0.6,0.1c0.1,0.1,0.1,0.4,0,0.5c-0.1,0.2-0.4,0.2-0.6,0.1
		c0,0-0.1,0-0.1,0c0,0.3,0.1,0.4,0.3,0.4c0.1,0,0.1,0,0.2,0c0.6-0.1,0.9,0.3,0.6,0.8c-0.1,0.2-0.2,0.3-0.3,0.5
		c-0.6,0.7-1.3,1.4-1.9,2.2c-0.2,0.2-0.3,0.4-0.4,0.6c0,0,0,0.1,0.1,0.1c0.2,0,0.4-0.1,0.5-0.1c0.6-0.4,1.3-0.9,1.9-1.3
		c0.5-0.4,1.1-0.8,1.6-1.3c0.1-0.1,0.1-0.1,0.2-0.2c0.1,0.2,0,0.4-0.2,0.6c-1,0.7-1.9,1.5-2.8,2.2c-0.3,0.2-0.6,0.4-1,0.5
		c-0.4,0.1-0.6-0.1-0.6-0.5c0-0.6,0.2-1.2,0.6-1.7c0.4-0.6,0.9-1.1,1.4-1.6c0.1-0.1,0.1-0.1,0.2-0.2c-0.4,0-0.7-0.2-1.1,0.2
		c-0.9,0.8-1.8,1.5-2.7,2.3c-0.8,0.7-1.7,1.3-2.7,1.5c-0.2,0-0.4,0.1-0.6,0.1c-0.7,0-1.2-0.3-1.2-1.1c0-0.3,0-0.6,0.1-0.9
		c-0.3,0-0.7,0-1,0c-0.1,0-0.2,0.1-0.3,0.1c-0.7,0.6-1.4,1.1-2.2,1.5c-0.4,0.2-0.8,0.3-1.3,0.3c-0.5,0.1-0.8-0.3-0.7-0.8
		c0.1-0.4,0.3-0.7,0.5-1c0.1-0.1,0.1-0.2,0.2-0.3c-0.4,0.3-0.7,0.6-1.1,0.8c-0.5,0.3-1,0.7-1.5,1c-0.3,0.2-0.6,0.2-0.9,0.3
		c-0.4,0.1-0.7-0.1-0.6-0.6c0-0.3,0.1-0.7,0.3-0.9c0.5-0.7,1-1.3,1.5-2c0.1-0.1,0.1-0.1,0.2-0.2c-0.1,0-0.1,0-0.2,0.1
		c-0.6,0.5-1.3,0.9-1.9,1.4c-0.6,0.5-1.3,1-1.9,1.5c-0.6,0.4-1.3,0.7-2,0.7c-1.1,0.1-1.5-0.5-1.4-1.5c0-0.1,0-0.2,0.1-0.4
		c-0.1,0.1-0.2,0.2-0.3,0.3c-0.6,0.4-1.1,0.9-1.7,1.2c-0.3,0.2-0.6,0.3-1,0.4c-0.5,0.1-0.8-0.2-0.7-0.6c0.1-0.4,0.2-0.8,0.4-1.2
		c0.3-0.5,0.7-1,1.1-1.6c-0.4,0.3-0.8,0.6-1.2,1c-0.1-0.2-0.1-0.4,0.1-0.5c0.6-0.5,1.3-0.9,1.9-1.4c0.1-0.1,0.2-0.1,0.3-0.1
		c0.4,0,0.7,0,1.1,0c-0.3,0.3-0.5,0.5-0.7,0.8c-0.7,0.8-1.5,1.7-2.2,2.5c-0.2,0.2-0.4,0.5-0.5,0.9c0.3-0.1,0.6-0.1,0.8-0.2
		c0.7-0.4,1.3-0.9,2-1.4c0.4-0.3,0.8-0.7,1.1-1c0.9-0.9,2-1.4,3.3-1.6c0.4,0,0.7,0,0.9,0.4c0.1,0.3,0,0.7-0.3,1
		c-0.5,0.5-1.2,0.7-1.9,0.8c-0.4,0.1-0.8,0.1-1.1,0.1c-0.1,0-0.3,0.1-0.4,0.2c-0.2,0.3-0.4,0.6-0.6,0.9c-0.2,0.5-0.1,0.7,0.4,0.7
		c0.4,0,0.8-0.1,1.1-0.2c1-0.3,1.8-0.9,2.6-1.6c0.3-0.2,0.5-0.5,0.8-0.7c0.8-0.6,1.5-1.2,2.5-1.5C49.9,80.5,50.4,80.5,50.8,80.6
		C50.8,80.5,50.8,80.6,50.8,80.6z M43.3,82.3c0.9,0,1.8-0.2,2.4-0.8c0.2-0.2,0.4-0.3,0.2-0.6c-0.1-0.2-0.4-0.1-0.6-0.1
		C44.5,81.1,43.9,81.7,43.3,82.3z M57.6,82.3c0.9,0,1.8-0.2,2.5-0.9c0.2-0.1,0.4-0.4,0.2-0.6c-0.1-0.1-0.4-0.1-0.6-0.1
		C58.8,81.1,58.1,81.7,57.6,82.3z"/>
	<path fill="#FFFFFF" stroke="#FFFFFF" stroke-width="0.2648" stroke-miterlimit="10" d="M37.2,78.9c-0.6,0-1.1,0.1-1.6,0.1
		c-0.5,0-0.7-0.3-0.7-0.7c0-0.4,0.3-0.7,0.8-0.7c0.5,0,1,0.2,1.3,0.5c0.2,0.2,0.3,0.2,0.5,0c1.2-0.8,2.1-1.9,2.4-3.3
		c0.1-0.6,0.1-1.2-0.2-1.5c-0.4,0.3-0.9,0.6-1.3,0.9c-1.8,1.3-3.1,3-4.3,4.9c-1.4,2.1-3.1,3.7-5.1,5.1c-1.7,1.2-3.6,1.7-5.7,1.5
		c-0.5,0-0.9-0.2-1.3-0.4c-0.6-0.3-0.8-0.9-0.6-1.4c0.1-0.3,0.4-0.5,0.7-0.5c0.2,0,0.4,0.1,0.5,0.3c0,0.2,0,0.4-0.1,0.5
		c-0.1,0.2-0.3,0.2-0.6,0.1c-0.1,0-0.1-0.1-0.2-0.1c0,0.4,0.2,0.6,0.5,0.7c0.4,0.2,0.9,0.3,1.3,0.4c2.2,0.2,4.1-0.5,5.6-2.1
		c1.2-1.2,2.3-2.5,3.4-3.8c1.6-1.9,3.3-3.6,5.2-5.2c0.5-0.5,1.2-0.8,1.7-1.3c-0.6-0.5-1.3-0.8-2-0.9c-3.6-0.4-6.8,0.5-9.5,3.1
		c-0.6,0.6-1.1,1.4-1.3,2.3c-0.1,0.3-0.1,0.6,0,0.9c0.1,0.6,0.5,1,1.1,1c0.5,0,1-0.1,1.4-0.3c2-0.8,3.5-2.1,4.6-4
		c0.4-0.6,0.6-1.3,0.6-2c0,0,0-0.1,0-0.2c0.1,0,0.2,0,0.3,0c0,0.6-0.1,1.1-0.3,1.6c-0.7,1.5-1.8,2.7-3.1,3.7
		c-0.8,0.6-1.8,1.2-2.8,1.4c-0.3,0.1-0.7,0.1-1,0.1c-0.9-0.1-1.4-0.7-1.4-1.6c0-0.8,0.2-1.6,0.7-2.3c0.9-1.3,2.1-2.2,3.4-2.9
		c2-1,4.1-1.4,6.3-1.4c1.1,0,2.2,0.3,3.1,1c0.1,0.1,0.2,0.1,0.4,0c0.6-0.3,1.3-0.6,1.9-0.9c0.3-0.1,0.5-0.1,0.6,0.2
		c-0.8,0.4-1.6,0.7-2.3,1.1c0.2,0.5,0.4,1,0.4,1.4c0.2,1.4-0.4,2.4-1.4,3.2c-0.5,0.4-1.1,0.7-1.7,1c0.1,0.3,0.2,0.6,0.3,1
		c0.2,0.8,0,1.7-0.4,2.4c-1,1.9-2.6,3.1-4.8,3.5c-0.2,0-0.5,0.1-0.7,0c-0.9,0-1.3-0.6-1.1-1.5c0.1-0.6,0.5-1.1,0.9-1.6
		c0.8-0.9,1.9-1.6,3-1.9c0,0,0.1,0,0.1,0c0,0,0.1,0,0.1,0c0,0.1,0,0.2,0.1,0.3c-0.5,0.2-1,0.4-1.5,0.7c-0.9,0.4-1.5,1.1-2,1.9
		c-0.2,0.3-0.3,0.7-0.4,1.1c-0.1,0.4,0.2,0.7,0.6,0.7c0.8,0.1,1.5-0.1,2.1-0.5c1.3-0.8,2.2-2,2.8-3.4c0.3-0.5,0.4-1.1,0.6-1.7
		C37.3,79.4,37.2,79.1,37.2,78.9z M36.9,78.5c0,0,0-0.1,0-0.1c-0.1-0.1-0.2-0.2-0.3-0.2c-0.3-0.1-0.6-0.2-0.9-0.3
		c-0.2,0-0.4,0.2-0.4,0.4c0,0.3,0.2,0.4,0.4,0.4C36.1,78.7,36.5,78.6,36.9,78.5z"/>
	<path fill="#FFFFFF" stroke="#FFFFFF" stroke-width="0.2648" stroke-miterlimit="10" d="M88.8,57.8c0.9,0.2,1.8,0.4,2.7,0.5
		c-0.3-0.6,0.2-1,0.3-1.5c-0.4-0.3-0.8-0.5-1.3-0.8c-0.7-0.5-1.4-1-2-1.7C88.2,53.9,88,53.5,88,53c0-0.6,0.4-0.9,0.8-1.2
		c1-0.6,2-0.8,3.1-0.6c0.5,0.1,1,0.2,1.4,0.4c0.9,0.4,1.2,1.2,0.9,2.2c-0.3,0.8-0.7,1.4-1.3,2c-0.3,0.3-0.7,0.6-1,1
		C92,56.8,92,56.9,92,57c0,0.2,0.1,0.3,0.1,0.5c0,0.3,0,0.5,0,0.8c0.8-0.2,1.5-0.7,2.3-0.9c0-0.6,0-1.1,0-1.6c0,0,0,0,0,0
		c0.1,0.2,0.2,0.5,0.3,0.7c0.4,1.1,1.1,2,2.1,2.8c0.4,0.3,0.7,0.6,1.1,0.9c0.3,0.3,0.5,0.6,0.5,1c-0.9-0.7-1.9-1.4-2.8-2.2
		c-0.4-0.3-0.7-0.8-1.1-1.2c-0.8,1.3-1.8,2.1-3.5,1.8C90,59.3,89.3,58.7,88.8,57.8z"/>
	<path fill="#FFFFFF" stroke="#FFFFFF" stroke-width="0.2648" stroke-miterlimit="10" d="M101.1,47.2c-0.1-0.4-0.2-0.8-0.4-1.3
		c-0.3-0.8-0.9-1.1-1.8-0.9c-0.4,0.1-0.8,0.3-1.3,0.4c0.3,0.2,0.7,0.3,0.9,0.4c0.7,0.5,0.7,1.4,0,1.9c-0.4,0.3-0.9,0.4-1.4,0.4
		c1.2,0.3,2.4,0.6,3.5,1.2c2.9,1.5,4.3,3.9,4.4,7.1c0.1,2.1-0.5,4-1.8,5.6c-0.7,0.9-1.5,1.5-2.6,1.8c-0.2,0-0.3,0.1-0.5,0.1
		c-0.7,0.1-1.2-0.4-1.3-1.1c0-0.2,0-0.4,0-0.6c-0.5-0.3-0.5-0.3-0.5-0.8c0.1,0.3,0,0.7,0.5,0.7c0.1-0.2,0.2-0.4,0.5-0.3
		c0.1,0.1,0.2,0.2,0.3,0.3c-0.1,0.3-0.2,0.3-0.5,0.2c0,0-0.1,0-0.1,0c0.1,0.3,0.1,0.7,0.2,1c0,0.1,0.1,0.1,0.2,0.1
		c0.6,0.1,1.1,0,1.6-0.3c0.6-0.3,1.1-0.8,1.5-1.4c0.6-0.9,1-1.9,1.1-3c0.1-1.2,0.2-2.3,0.1-3.5c-0.3-2.6-1.5-4.5-3.8-5.8
		c-1.3-0.7-2.8-1.1-4.2-1.3c-0.1,0-0.3-0.1-0.4-0.1c0.4,0,0.8,0.1,1.3,0.1c-0.8-0.6-0.9-0.6-1-1.2c-0.5,0.4-0.9,0.7-1.4,1.1
		c-0.3,0.2-0.5,0.4-0.8,0.6c-0.9,0.7-1.9,0.7-2.9,0.4c-0.7-0.3-1.4-0.7-1.9-1.2c-0.7-0.6-1.4-1.2-2-1.8c-0.7-0.6-1.6-1-2.6-1
		c0.8-0.2,1.5-0.2,2.2,0.2c0.4,0.2,0.8,0.5,1.2,0.8c0.2,0.2,0.5,0.4,0.7,0.6c1.3,1.2,2.8,1.4,4.4,1c0.6-0.1,1.1-0.4,1.6-0.7
		c1-0.6,1.9-1.1,2.9-1.7c0.7-0.4,1.4-0.6,2.2-0.6c0.7,0,1.2,0.3,1.5,0.9C101,46.1,101.1,46.7,101.1,47.2z M98.2,46.1
		c0-0.2-0.3-0.2-0.4-0.2c-0.1,0-0.2,0.1-0.3,0.2c0,0.3,0.1,0.3,0.2,0.3C97.8,46.4,98.2,46.4,98.2,46.1z"/>
	<path fill="#FFFFFF" stroke="#FFFFFF" stroke-width="0.2648" stroke-miterlimit="10" d="M47,48.7c-0.5-0.2-0.9-0.4-1.4-0.6
		c-1-0.5-1.1-1.2-0.3-1.9c0.4-0.3,0.8-0.6,1.2-0.9c0.1-0.1,0.2-0.1,0.4-0.1c1.1-0.1,2.2-0.1,3.3,0.2c1.3,0.4,1.7,1.1,1.1,2.4
		c0,0.1-0.1,0.2-0.1,0.3c-0.3,0.5-0.5,0.5-0.8-0.1c-0.1,0.1-0.3,0.2-0.3,0.3c0,0.1,0.1,0.3,0.2,0.4c0,0,0.1,0.1,0.1,0.1
		c0.6,0.3,0.7,1,0.3,1.5c-0.4,0.4-0.9,0.5-1.4,0.8c-0.7,0.3-1.2,0.1-1.7-0.3c-0.4-0.2-0.7-0.5-1.1-0.8c-0.1-0.1-0.2-0.2-0.3-0.3
		c-0.2-0.4-0.1-0.6,0.3-0.8C46.7,48.8,46.8,48.8,47,48.7z M47.2,48.1C47.2,48.1,47.1,48.1,47.2,48.1c-0.3,0.2,0,0.5,0.1,0.6
		c0.1-0.1,0.2-0.2,0.2-0.2C47.5,48.3,47.4,48,47.2,48.1z"/>
	<path fill="#FFFFFF" stroke="#FFFFFF" stroke-width="0.2648" stroke-miterlimit="10" d="M88.1,48.6c-1.6,0.4-3.2,1-4.5,2.1
		c-1.8,1.5-2.9,3.5-3.4,5.8c-0.3,1.1-0.4,2.1-0.4,3.2c0,2.2,1.5,3.8,3.7,4.1c0.5,0,0.9,0.1,1.4,0.1c0.3,0,0.3-0.1,0.3-0.4
		c0,0,0-0.1,0-0.1c-0.4-0.9,0.1-1.2,0.7-1.5c0.4-0.1,0.4-0.2,0.3-0.6c-0.2-0.5-0.1-0.9,0.1-1.4c0.1-0.1,0.1-0.3,0.2-0.4
		c0.9-0.9,1.5-2,1.8-3.3c0,0,0.1,0,0.1,0c0.1,0.7,0.1,1.4-0.1,2c-0.1,0.3-0.4,0.6-0.6,0.8c-0.6,0.5-1,1-1.3,1.7
		c-0.1,0.2-0.1,0.4-0.1,0.6c0,0.2,0,0.4-0.3,0.5c-0.1,0-0.3,0.1-0.4,0.2c-0.4,0.3-0.5,0.5-0.3,1c0.1,0.1,0.1,0.3,0.2,0.4
		c0.1,0.3,0,0.4-0.3,0.5c-2.4,0.4-5-0.5-6-3.1c-0.6-1.5-0.5-3.1,0-4.7c1.4-4.1,4.2-6.7,8.4-7.6C87.7,48.7,87.9,48.7,88.1,48.6z"/>
	<path fill="#FFFFFF" stroke="#FFFFFF" stroke-width="0.2648" stroke-miterlimit="10" d="M36.6,63.4c0.2,0.4,0.3,0.8,0.5,1.3
		c0.3-0.3,0.3-0.7,0.4-1.1c0.1-1.1-0.3-2.2-0.6-3.3c-0.1-0.4-0.3-0.9-0.5-1.3c-0.6-1.3-0.8-2.6-1-4c0-0.5-0.1-1-0.2-1.4
		c-0.2-0.7-0.1-1.4,0-2.2c0.3-2.6,0.2-5.1-0.9-7.5c-0.1-0.3-0.2-0.6-0.4-0.8c-0.4-0.5-0.5-1.2-0.5-1.8c0-0.9,0-1.8,0-2.7
		c0,0.7,0.1,1.3,0.1,2c0,0.4,0,0.8,0.1,1.2c0.1,0.4,0.2,0.7,0.4,1.1c1.1,1.6,1.7,3.3,2,5.2c0.2,1.5,0.4,2.9,0.6,4.4
		c0,0.4-0.1,0.7-0.1,1.1c-0.3,1.9-0.1,3.9,0.5,5.7c0.4,1.3,0.7,2.6,0.6,3.9c0,0.5-0.1,0.9-0.2,1.4c0,0.1-0.2,0.2-0.3,0.3
		c-0.1-0.1-0.2-0.2-0.3-0.3C36.7,64.1,36.6,63.8,36.6,63.4C36.5,63.4,36.5,63.4,36.6,63.4z"/>
	<path fill="#FFFFFF" stroke="#FFFFFF" stroke-width="0.2648" stroke-miterlimit="10" d="M40.5,27.8c0.6,0.2,0.9,0.6,1.1,1.2
		c0.2,0.7,0.6,1.2,1.3,1.4c0.1,0.1,0.3,0.1,0.4,0.2c0.3,0.2,0.7,0.3,1,0.2c0.3-0.1,0.5,0.1,0.6,0.4c0.2,0.6,0.4,1.2,0.5,1.8
		c0.3,1.9,0.5,3.8,0.5,5.7c0,0.7-0.1,1.3-0.2,2c-0.2,1.1-0.9,1.8-1.8,2.5c-1.2,1-2.6,1.5-4.1,2c-0.1,0-0.2,0.1-0.3,0.1
		c0.1,0.4,0.2,0.7,0.3,1c0.3,1,0.2,1.8-0.5,2.6c-0.1,0.1-0.2,0.2-0.3,0.3c0.6,0.1,1.1,0.1,1.7,0.2c-0.2,0.1-0.3,0.1-0.4,0.2
		c0.5,1.1,1.5,1.3,2.4,1.6c-0.1,0-0.3,0.1-0.5,0.1c0.3,0.6,0.1,1.2-0.4,1.7c0.1-0.3,0.3-0.6,0.4-0.8c0.1-0.3,0.1-0.6-0.1-0.8
		c-0.6,0.3-1.2,0.6-1.9,0.9c0.5-0.7,1-1.1,1.6-1.3c-0.3-0.1-0.5-0.2-0.7-0.3c-0.1-0.1-0.3-0.2-0.4-0.3c-0.1-0.1-0.3-0.3-0.4-0.5
		c-0.2-0.2-0.4-0.3-0.7-0.2c-0.1,0.1-0.3,0.1-0.5,0.1c-0.2,0-0.4,0-0.6,0c0.2-0.1,0.4-0.3,0.7-0.4c-0.3-0.1-0.4-0.1-0.7-0.2
		c0.1-0.1,0.2-0.2,0.3-0.3c0.8-0.7,1.1-1.5,0.8-2.6c-0.1-0.3-0.2-0.7-0.3-1c-0.1-0.4,0-0.5,0.3-0.6c0.8-0.3,1.7-0.6,2.5-1
		c1.4-0.7,2.3-1.9,3-3.2c0.3-0.7,0.4-1.4,0.4-2.1c0.1-2,0-4-0.3-5.9c-0.1-0.4-0.2-0.7-0.3-1.1c-0.1-0.3-0.3-0.4-0.7-0.3
		c-0.2,0-0.4,0-0.6-0.1c-0.5-0.2-0.9-0.5-1.4-0.8c-0.4-0.3-0.7-0.6-0.7-1.1c0-0.4-0.2-0.7-0.6-0.9C40.7,28,40.6,27.9,40.5,27.8z"/>
	<path fill="#FFFFFF" stroke="#FFFFFF" stroke-width="0.2648" stroke-miterlimit="10" d="M54.4,52.2c0.9,0.4,0.9,0.4,1.9,1.8
		c-0.4-0.3-0.7-0.5-1.1-0.7c-0.1-0.1-0.3-0.1-0.4-0.2c-0.1,0-0.1-0.1-0.1-0.1c-0.1-0.2-0.2-0.3-0.4-0.5c-0.2,0.6-0.5,1.2-0.7,1.7
		c-0.1,0.3-0.3,0.7-0.4,1c-0.1,0.3-0.4,0.5-0.7,0.5c-0.6,0.1-1.2-0.1-1.8-0.3c-0.6-0.2-1.2-0.5-1.8-0.7c-1-0.4-2-0.3-3,0.1
		c-0.7,0.3-1.5,0.6-2.3,0.6c-1.6,0.1-3.1-0.3-4.6-0.9c-0.2-0.1-0.4-0.1-0.6-0.2c-0.3-0.1-0.7-0.3-1-0.5c-0.3-0.2-0.4-0.4-0.4-0.8
		c0-0.3,0.2-0.6,0.5-0.6c0.3-0.1,0.6,0.1,0.7,0.4c0,0.2,0.2,0.3,0.3,0.5c1,1.4,3.6,1.7,4.8,1.7c0.9,0,1.7-0.3,2.4-0.6
		c0.8-0.4,1.6-0.6,2.4-0.4c0.5,0.1,1.1,0.3,1.6,0.5c0.6,0.2,1.2,0.5,1.8,0.7c0.3,0.1,0.7,0.1,1.1,0.1c0.1,0,0.2-0.1,0.3-0.2
		c0.4-0.8,0.7-1.6,1.1-2.5c0.1-0.2,0.1-0.4-0.2-0.5c-0.1-0.1-0.2-0.1-0.3-0.2c0.2,0.1,0.4,0.1,0.6,0.2c0.2-0.8,0.3-1.6,0.3-2.2
		c-0.3-0.3-0.6-0.5-0.9-0.7c0,0,0,0,0-0.1c0.2,0,0.5,0,0.7,0c-0.2-1.5-0.9-2.8-1.6-4.1c0.9,1.3,1.6,2.6,1.9,4.1
		c0,0.2,0.1,0.4,0.2,0.6c0,0.1-0.1,0.2-0.1,0.3C54.4,50.6,54.4,51.4,54.4,52.2z"/>
	<path fill="#FFFFFF" stroke="#FFFFFF" stroke-width="0.2648" stroke-miterlimit="10" d="M36.3,40.5c0.8-0.2,1.4-0.7,2.1-1.2
		c0.3-0.2,0.6-0.5,0.9-0.6c0.6-0.3,1-0.2,1.5,0.2c0.1,0.1,0.2,0.2,0.3,0.2c0.6,0.4,0.9,0.9,0.9,1.6c0,0.5,0.1,0.9,0.5,1.1
		c0,0,0,0-0.1,0.1c-0.2-0.1-0.3-0.3-0.5-0.4c-0.2,0.3-0.4,0.5-0.6,0.8c0.2,0,0.5,0,0.7,0c-0.9,0.3-1.9,0.6-2.8,0.7
		c-0.5,0-0.9-0.1-1.2-0.5c-0.4-0.5-0.8-1-1.1-1.6c0.7,0.8,1.4,1.6,2.6,1.4c-0.4-0.4-0.6-0.8-0.7-1.4c0-0.5,0.2-1,0.5-1.5
		c-0.1,0.1-0.3,0.1-0.4,0.2c-0.5,0.2-0.9,0.5-1.4,0.7C37.1,40.3,36.7,40.4,36.3,40.5L36.3,40.5z M40.4,39.1c-0.2,0.3-0.2,0.6,0,0.8
		C40.7,39.6,40.7,39.4,40.4,39.1z"/>
	<path fill="#FFFFFF" stroke="#FFFFFF" stroke-width="0.2648" stroke-miterlimit="10" d="M51.1,41.5c0.4,0.3,0.7,0.8,1.1,0.9
		c-0.1-0.4-0.3-0.8-0.3-1.3c0-0.4,0.1-0.9,0.1-1.3c-0.2,0.1-0.4,0.3-0.6,0.4c-0.2,0.2-0.4,0.3-0.6,0.5c0,0,0,0-0.1-0.1
		c0.4-0.4,0.7-0.8,1.1-1.2c0.4-0.3,0.9-0.6,1.3-0.9c0.1,0,0.2-0.1,0.3-0.1c0.5,0.2,0.9,0.4,1.3,0.8c0.3,0.3,0.4,0.7,0.4,1.1
		c0,0.3,0,0.6,0.3,0.8c-0.3,0-0.4-0.3-0.4-0.5c-0.1-0.4-0.2-0.8-0.5-1c-0.2-0.2-0.4-0.2-0.7-0.3c0.5,0.8,0.5,1.6,0.3,2.5
		c0,0,0,0,0.1,0c0.2-0.3,0.3-0.6,0.5-0.9c0,0.6-0.2,1-0.7,1.4c-0.2,0.1-0.3,0.2-0.5,0.4c-0.2,0.1-0.4,0.3-0.6,0.3
		c-0.4-0.1-0.9-0.2-1.2-0.4C51.5,42.4,51.3,41.9,51.1,41.5C51,41.5,51,41.5,51.1,41.5z M52.6,40.6c0.3,0,0.5-0.1,0.4-0.3
		c0-0.1-0.2-0.3-0.3-0.3c-0.2-0.1-0.4,0.1-0.3,0.3C52.4,40.4,52.5,40.5,52.6,40.6z"/>
	<path fill="#FFFFFF" stroke="#FFFFFF" stroke-width="0.2648" stroke-miterlimit="10" d="M20.9,53.9c-0.1-0.7-0.1-1.4-0.2-2.1
		c0-0.3,0.1-0.6,0.4-0.8c0.2-0.2,0.5-0.5,0.5-0.8c0.2-0.8,0.4-1.7,0.6-2.5c0.1-0.3,0.1-0.6,0.2-0.9c0.1-0.1,0.2-0.3,0.4-0.3
		c1-0.3,1.8-0.9,2.3-1.8c0.6-1,1-2.1,1.6-3.1c0.1-0.1,0.1-0.3,0.2-0.4c-0.2,0.7-0.4,1.3-0.6,2c-0.1,0.2-0.1,0.4-0.2,0.6
		c-0.3,1.2-0.8,2.2-1.6,3c-0.4,0.4-0.7,0.7-1,1.1c-0.1,0.2-0.3,0.4-0.4,0.6c-0.2,0.4-0.3,0.8-0.5,1.2c-0.3,0.7-0.8,1.2-1.4,1.7
		C21.1,51.6,21,51.8,21,52c0,0.5,0,1.1-0.1,1.6C20.9,53.7,20.9,53.8,20.9,53.9C20.9,53.9,20.9,53.9,20.9,53.9z"/>
	<path fill="#FFFFFF" stroke="#FFFFFF" stroke-width="0.2648" stroke-miterlimit="10" d="M28,48.3c-0.8,0.3-1.1,1.1-1.1,1.9
		c0,1.2,0,2.4,0.1,3.6c0,0.4,0,0.8,0,1.2c0,0.2-0.1,0.4-0.2,0.6c-0.5,0.4-1.1,0.7-1.7,0.6c-0.3-0.1-0.5,0-0.6,0.3
		c-0.2,0.3-0.3,0.7-0.5,1.1c-0.2,0.4-0.3,0.7-0.5,1.1c-0.4,0.7-1,1.1-1.8,1.4c0.2-0.1,0.4-0.3,0.6-0.4c0.8-0.4,1-1.2,1.2-2
		c0.1-0.5,0.2-1,0.4-1.5C24,55.4,24.4,55,25,55c0.3,0,0.4-0.1,0.4-0.4c0-0.1,0-0.1,0-0.2c0.6-0.5,0.6-1.2,0.7-1.9
		c0.2-0.9,0.2-1.8,0.4-2.8c0.1-0.4,0.3-0.8,0.6-1.2C27.4,48.4,27.7,48.3,28,48.3C28,48.2,28,48.2,28,48.3z"/>
	<path fill="#FFFFFF" stroke="#FFFFFF" stroke-width="0.2648" stroke-miterlimit="10" d="M47.4,41.1c-0.2,0.2-0.3,0.5-0.5,0.7
		c-0.1,0.1-0.2,0.2-0.3,0.2c-0.1,0-0.2-0.2-0.2-0.3c-0.2-0.8-0.1-1.6,0.1-2.4c0.3-1.5,0.7-2.9,1-4.4c0.2-0.9,0.2-1.8,0.3-2.7
		c0.2-1.3,0.6-2.5,1.2-3.6c-0.2,0.5-0.3,1-0.5,1.5c-0.3,1.1-0.5,2.3-0.5,3.5c-0.1,2-0.4,4-0.8,6c-0.1,0.5-0.2,1-0.2,1.6
		c0.1-0.1,0.1-0.2,0.2-0.3c0.1-0.1,0.2-0.2,0.3-0.3c0.1,0.1,0.2,0.2,0.3,0.3c0.1,0.2,0.2,0.4,0.2,0.7c0.2,0.5,0.4,0.6,0.9,0.4
		c0.1,0,0.2-0.1,0.3-0.1c0.2-0.1,0.4,0,0.5,0.2c0.2,0.4,0.5,0.6,0.9,0.8c0.3,0.1,0.6,0.3,0.8,0.4c0,0,0,0.1,0,0.1
		c-0.4-0.2-0.9-0.4-1.3-0.6c-0.2-0.1-0.3-0.4-0.5-0.5c-0.1-0.1-0.2-0.1-0.2-0.1c-0.2,0.1-0.4,0.2-0.7,0.2c-0.5,0.1-0.7,0-0.9-0.4
		C47.6,41.6,47.5,41.3,47.4,41.1z"/>
	<path fill="#FFFFFF" stroke="#FFFFFF" stroke-width="0.2648" stroke-miterlimit="10" d="M56.3,41.7c-0.1,1.3-0.2,2.5-0.3,3.8
		C56,46.6,56,47.8,56,48.9c0,0.4,0.1,0.7,0.2,1.1c0.3,0.9,0.6,1.7,0.7,2.7c0,0.4,0.2,0.8,0.2,1.2c-0.1-0.2-0.3-0.5-0.4-0.8
		c-0.3-1.3-0.9-2.4-1.6-3.4c-0.6-0.9-0.6-1.8-0.3-2.8c0.3-1,0.7-2,1-3.1c0.2-0.6,0.2-1.2,0.4-1.8C56.3,41.9,56.3,41.8,56.3,41.7
		C56.3,41.7,56.3,41.7,56.3,41.7z"/>
	<path fill="#FFFFFF" stroke="#FFFFFF" stroke-width="0.2648" stroke-miterlimit="10" d="M84.8,49.2c-0.5,0-0.9-0.1-1.2-0.5
		c-0.7-0.6-0.5-1.7,0.3-2.2c0.5-0.3,1-0.3,1.5-0.1c0.7,0.2,1.1,0.8,1,1.5c-0.1,0.6-0.6,1.2-1.3,1.3C85,49.2,84.9,49.2,84.8,49.2z
		 M85.2,47c0-0.2-0.3-0.2-0.3-0.2c-0.1,0-0.2,0.1-0.2,0.2c0,0.2,0.2,0.2,0.2,0.2C85,47.3,85.2,47.2,85.2,47z"/>
	<path fill="#FFFFFF" stroke="#FFFFFF" stroke-width="0.2648" stroke-miterlimit="10" d="M49.5,56c-0.6,0.8-1.4,1.3-2.5,1.5
		c-1.4,0.3-2.7,0.3-4.1,0.2c-1.1-0.1-2.3-0.2-3.4-0.3c-1.1-0.1-1.9-0.7-2.4-1.7c0,0,0.1,0,0.1,0c0.8,1.1,2,1.5,3.3,1.4
		c0.8,0,1.5-0.1,2.3-0.2c0.9-0.1,1.8,0.1,2.6,0.2c0.6,0.1,1.2,0.1,1.8,0.1c0.9,0,1.7-0.5,2.3-1.1C49.4,56.1,49.5,56,49.5,56z"/>
	<path fill="#FFFFFF" stroke="#FFFFFF" stroke-width="0.2648" stroke-miterlimit="10" d="M56.5,63.7c-0.1-0.5-0.1-1-0.2-1.4
		c0-0.3-0.1-0.5-0.5-0.4c-0.1,0-0.3-0.1-0.4-0.3C55,61,55,60.4,55.3,59.8c0-0.1,0.1-0.2,0.2-0.3c0.6-0.8,0.9-1.7,1-2.7
		c0,0,0-0.1,0-0.1c0-0.1,0-0.2,0.1-0.3c0,0.1,0,0.2,0,0.4c0,1.1,0,2.2,0,3.2c0,0.4-0.2,0.8-0.3,1.3c0-0.1,0,0,0,0
		c0.6,0.3,0.7,0.8,0.6,1.4C56.7,63,56.6,63.3,56.5,63.7C56.5,63.7,56.5,63.7,56.5,63.7z"/>
	<path fill="#FFFFFF" stroke="#FFFFFF" stroke-width="0.2648" stroke-miterlimit="10" d="M42.8,60.7c0.1,0.8,0.3,1.5,0.4,2.3
		c0.1,1,0,1.9-0.1,2.9c-0.1,0.3-0.1,0.6-0.1,0.9c-0.1,0.6,0.2,1.2,0.7,1.5c0.5,0.3,1,0.5,1.6,0.7c0.5,0.2,0.9,0.3,1.4,0.5
		c0.8,0.3,1.1,1,1.1,1.9c-0.1-1-0.8-1.6-1.7-1.9c-0.6-0.2-1.2-0.3-1.9-0.4c-0.2-0.1-0.4-0.1-0.6-0.2c-0.9-0.3-1.3-1-1.1-2
		c0.1-0.7,0.3-1.5,0.4-2.2c0.2-1.1,0.2-2.2,0-3.3C42.8,61.2,42.8,60.9,42.8,60.7C42.8,60.7,42.8,60.7,42.8,60.7z"/>
	<path fill="#FFFFFF" stroke="#FFFFFF" stroke-width="0.2648" stroke-miterlimit="10" d="M53.9,33.3c0.3-0.2,0.6-0.2,0.9,0
		c0.3,0.2,0.2,0.5,0.1,0.7c-0.1,0.5-0.3,1.1-0.4,1.6c-0.1,0.6,0.1,0.8,0.5,0.9c0.6,0.1,0.9,0.5,1,1.1c0,0.2,0,0.4,0,0.7
		c0-0.2-0.1-0.4-0.1-0.7c-0.1-0.6-0.4-0.8-0.9-0.9c-0.6-0.1-0.9-0.3-0.8-1c0-0.3,0.1-0.7,0.1-1c0-0.1,0-0.3,0-0.4
		c0-0.2-0.1-0.3-0.3-0.3c-0.3,0-0.4-0.2-0.5-0.4c-0.1-0.4-0.1-0.8-0.2-1.1c0-0.2-0.1-0.3-0.2-0.5c-0.4-0.9-1-1.2-1.9-0.9
		c0.4-0.3,1-0.4,1.5-0.1c0.6,0.4,0.9,0.9,1.1,1.6C53.8,32.9,53.9,33.1,53.9,33.3z"/>
	<path fill="#FFFFFF" stroke="#FFFFFF" stroke-width="0.2648" stroke-miterlimit="10" d="M54.3,78.4c-0.5-1.2-0.7-2.4-0.8-3.6
		c-0.1-1.8-0.3-3.5-1-5.1c-0.3-0.7-0.5-1.4-0.5-2.2c0.2,1,0.6,2,1.1,2.8c0.9,1.5,1,3.2,0.9,5c-0.1,1,0,2,0.3,3
		C54.2,78.3,54.2,78.3,54.3,78.4z"/>
	<path fill="#FFFFFF" d="M42.4,90.8c-0.1,0.2-0.1,0.4-0.2,0.7c-0.2,0-0.4,0-0.6,0c0-0.8,0-1.6,0-2.5c0.2,0,0.4,0,0.7,0
		c0,0.4,0,0.8,0,1.2c0,0,0,0,0.1,0.1c0.3-0.5,0.7-0.7,1.3-0.5c-0.1,0.1-0.3,0.3-0.4,0.4c-0.1,0.1-0.1,0.2-0.1,0.4
		c0.2,0.3,0.4,0.6,0.6,1c-0.3,0-0.6,0.1-0.8-0.1c-0.2-0.1-0.2-0.4-0.4-0.6C42.5,90.8,42.4,90.8,42.4,90.8z"/>
	<path fill="#FFFFFF" stroke="#FFFFFF" stroke-width="0.2648" stroke-miterlimit="10" d="M27.2,54.7c0.6,1.2,1,2.5,1.1,3.8
		c0.1,0.4,0.1,0.9,0.2,1.3c0.1,0.5,0.3,1,0.7,1.4c0,0,0,0-0.1,0c-0.2-0.2-0.3-0.4-0.5-0.6c-0.6-1-1-2.1-1.2-3.3
		c-0.1-0.6-0.2-1.3-0.3-1.9C27.2,55.2,27.2,54.9,27.2,54.7z"/>
	<path fill="#FFFFFF" d="M50.6,91.5c-0.2,0-0.4,0-0.7,0c0-0.3,0-0.6,0-0.9c0-0.2,0-0.3-0.2-0.3c-0.2,0-0.3,0.2-0.3,0.4
		c0,0.3,0,0.6,0,0.9c-0.2,0-0.4,0-0.7,0c0-0.6,0-1.1,0-1.7c0.4-0.1,0.6-0.1,0.6,0.1c0.2-0.1,0.5-0.2,0.7-0.2c0.3,0,0.5,0.2,0.6,0.5
		C50.6,90.6,50.6,91.1,50.6,91.5z"/>
	<path fill="#FFFFFF" d="M58,91.1c-0.3,0.5-1,0.7-1.5,0.4c-0.4-0.2-0.6-0.7-0.4-1.2c0.2-0.5,0.7-0.7,1.3-0.6
		c0.5,0.1,0.8,0.5,0.8,1.1c-0.4,0-0.9,0-1.3,0c0,0.3,0.3,0.5,0.5,0.3C57.5,90.9,57.7,91.1,58,91.1z M56.7,90.4c0.2,0,0.4,0,0.6,0
		c0-0.2-0.1-0.4-0.3-0.3C56.8,90.1,56.7,90.2,56.7,90.4z"/>
	<path fill="#FFFFFF" d="M45.7,90.8c0.1,0.3,0.2,0.5,0.4,0.3c0.3-0.2,0.5-0.1,0.8-0.1c-0.1,0.5-0.9,0.6-1.4,0.4
		c-0.4-0.1-0.7-0.7-0.5-1.2c0.1-0.5,0.6-0.8,1.2-0.7c0.6,0.1,0.8,0.4,0.8,1.1C46.6,90.8,46.2,90.8,45.7,90.8z M46.3,90.5
		c0-0.2-0.1-0.4-0.3-0.3c-0.2,0-0.3,0.1-0.3,0.3C45.9,90.5,46.1,90.5,46.3,90.5z"/>
	<path fill="#FFFFFF" d="M54.3,91.5c-0.2,0-0.5,0-0.7,0c0-0.3,0-0.6,0-0.9c0-0.2,0-0.3-0.2-0.4c-0.2,0-0.3,0.2-0.3,0.3
		c0,0.3,0,0.6,0,0.9c-0.2,0-0.4,0-0.7,0c0-0.6,0-1.2,0-1.7c0.4-0.1,0.6-0.1,0.7,0.1c0.1,0,0.1-0.1,0.2-0.1c0.5-0.3,0.9,0,1,0.5
		c0,0.1,0,0.2,0,0.2C54.3,90.8,54.3,91.2,54.3,91.5z"/>
	<path fill="#FFFFFF" stroke="#FFFFFF" stroke-width="0.2648" stroke-miterlimit="10" d="M55.5,41.7c-0.3,0.8-0.5,1.7-0.8,2.4
		c-0.3,0.6-0.4,1.3-0.5,2c0,0,0,0.1-0.1,0.1c0-0.5-0.1-1-0.1-1.5c0,0,0-0.1,0-0.1c-0.1-0.6,0-1.1,0.5-1.5c0.3-0.2,0.5-0.7,0.7-1
		C55.2,41.9,55.3,41.8,55.5,41.7C55.4,41.7,55.4,41.7,55.5,41.7z"/>
	<path fill="#FFFFFF" stroke="#FFFFFF" stroke-width="0.2648" stroke-miterlimit="10" d="M72.8,11.2c0.4,0.1,0.9,0.1,1.3,0.2
		c5.6,1.3,10.9,3.6,15.7,6.9c0.1,0,0.1,0.1,0.1,0.2c-0.1-0.1-0.2-0.1-0.3-0.2c-3.7-2.4-7.6-4.4-11.7-5.7
		C76.2,12,74.5,11.6,72.8,11.2L72.8,11.2z"/>
	<path fill="#FFFFFF" stroke="#FFFFFF" stroke-width="0.2648" stroke-miterlimit="10" d="M43.6,39.9c-0.1-0.7-0.1-1.4-0.3-2.1
		c-0.2,0.1-0.4,0.2-0.6,0.2c-0.2,0-0.4-0.1-0.5-0.2c-0.5-0.4-1.1-0.8-1.8-0.8c0,0,0,0,0-0.1c0.2,0,0.5,0,0.7,0.1
		c0.4,0.1,0.8,0.3,1.2,0.4c0.1,0,0.2,0,0.3-0.1c0.1,0,0.2-0.1,0.4-0.1c0.5,0.1,0.8,0.4,0.8,0.9c0,0.6-0.1,1.2-0.1,1.8
		C43.6,39.9,43.6,39.9,43.6,39.9z"/>
	<path fill="#FFFFFF" stroke="#FFFFFF" stroke-width="0.2648" stroke-miterlimit="10" d="M90.5,17.5c-5-3.1-10.2-5.6-16-6.9
		c0.7,0,5.9,1.6,8.3,2.7C85.5,14.4,88,15.8,90.5,17.5z"/>
	<path fill="#FFFFFF" d="M59.8,91.5c0-0.8,0-1.6,0-2.5c0.2,0,0.4,0,0.7,0c0,0.8,0,1.6,0,2.5C60.2,91.5,60,91.5,59.8,91.5z"/>
	<path fill="#FFFFFF" stroke="#FFFFFF" stroke-width="0.2648" stroke-miterlimit="10" d="M87.2,15.8c-3.6-1.9-7.3-3.5-11.2-4.7
		C79.9,12.2,83.6,13.8,87.2,15.8z"/>
	<path fill="#FFFFFF" stroke="#FFFFFF" stroke-width="0.2648" stroke-miterlimit="10" d="M36.2,40.5c0,0.1,0,0.2,0,0.2
		c-0.2,0.2-0.5,0.5-0.8,0.7c-0.2-0.3-0.4-0.6-0.6-1c0.3-0.1,0.6-0.2,0.8-0.7C35.8,40.1,35.8,40.5,36.2,40.5L36.2,40.5z"/>
	<path fill="#FFFFFF" stroke="#FFFFFF" stroke-width="0.2648" stroke-miterlimit="10" d="M42.8,78.4c0,0.3-0.2,0.5-0.5,0.5
		c-0.2,0-0.4-0.1-0.4-0.4c0-0.3,0.3-0.6,0.5-0.6C42.7,78,42.8,78.1,42.8,78.4z"/>
</g>
</svg>
