<?xml version="1.0" encoding="utf-8"?>
<!-- Generator: Adobe Illustrator 18.1.1, SVG Export Plug-In . SVG Version: 6.00 Build 0)  -->
<svg version="1.1" id="Layer_1" xmlns="http://www.w3.org/2000/svg" xmlns:xlink="http://www.w3.org/1999/xlink" x="0px" y="0px"
	 viewBox="0 0 127.6 113.4" enable-background="new 0 0 127.6 113.4" xml:space="preserve">
<g>
	<path stroke="#000000" stroke-width="0.3034" stroke-miterlimit="10" d="M96.7,68.5c4.5-0.4,8.7-2,12.6-4.2
		c5.7-3.3,9.7-8.1,11.8-14.5c1-3.1,1.3-6.2,1.1-9.4c-0.8-10.9-8.6-21-20.7-23.5c-2.3-0.5-4.6-0.7-6.9-0.6
		c-6.9,0.5-13.1,2.7-18.3,7.4c-3.8,3.4-6.1,7.7-7.3,12.7c-0.6,2.4-0.8,4.9-0.6,7.4c0.4,5.9,2.6,11,6.6,15.4
		c4.3,4.7,9.6,7.5,15.8,8.8c1.3,0.3,2.7,0.4,3.9,0.6C89,68.8,83.7,67.2,79,64c-4.7-3.2-8.1-7.5-10.3-12.9c-0.3,1.6-1.4,2.5-2.6,3.4
		c-0.1,0.1-0.3,0.3-0.3,0.4c-0.2,0.5-0.3,0.6-0.9,0.5c0.1,0.4,0.2,0.8,0.4,1.3c0.3,1.2,0.8,2.4,0.8,3.6c0,0.7,0,1.3-0.4,1.9
		c-0.2,0.3-0.4,0.4-0.7,0.1c-0.2-0.2-0.3-0.4-0.5-0.7c-0.1,0.7-0.2,1.4-0.3,2c-0.2,1.3-0.7,2.5-1.2,3.7c-0.3,0.7-0.6,1.3-1,1.9
		c-0.2,0.3-0.4,0.4-0.8,0.5c-0.5,0.1-0.9,0.4-1.4,0.5c-0.8,0.1-1.6,0.2-2.4,0.3c-0.9,0.1-1.8,0.1-2.7,0.1c-1,0-1.8-0.4-2.4-1.3
		c-0.4-0.5-0.9-0.9-1.4-1.3c-0.9-0.6-1.9-1.1-2.9-1.3c-1.1-0.3-1.2-0.9-1.1-1.8c0.2-1,0.7-1.9,1.3-2.6c0.4-0.5,0.9-1,1.4-1.4
		c0.2-0.2,0.3-0.4,0.5-0.5c-0.1,0.2-0.2,0.3-0.4,0.5c-0.4,0.4-0.8,0.9-1.2,1.3c-0.7,0.8-1.1,1.7-1.4,2.7c-0.1,0.2-0.1,0.5,0,0.7
		c0,0.4,0.3,0.7,0.8,0.8c1.1,0.3,2.2,0.8,3.2,1.4c0.7,0.4,1.3,0.9,1.7,1.6c0.5,0.8,1.3,0.9,2.1,0.9c0.6,0,1.2-0.1,1.9-0.1
		c0.9-0.1,1.8-0.2,2.7-0.3c0.3,0,0.6-0.2,0.9-0.3c0.2-0.1,0.3-0.2,0.5-0.2c0.5-0.1,0.8-0.4,1-0.9c0.5-1.5,1.1-2.9,1.6-4.4
		c0.2-0.7,0.2-1.5,0.3-2.3c0-0.4,0.1-0.8,0.2-1.1c0.1-0.5,0.4-0.5,0.8-0.2c0.2,0.1,0.3,0.3,0.5,0.5c0-0.5,0.1-1,0-1.4
		c-0.1-0.7-0.4-1.4-0.5-2c-0.2-0.8-0.5-1.7-0.7-2.5c0-0.1,0-0.3,0-0.4c0-0.7,0.2-0.9,1-0.7c0-0.5,0-0.9-0.1-1.4c-0.1-1-0.2-2-0.3-3
		c-0.1-0.9-0.5-1.6-1-2.3c-0.4-0.6-0.8-1.1-1.2-1.7c-0.2-0.2-0.3-0.5-0.5-0.7c-0.3-0.6-0.3-1,0.3-1.5c-0.2-0.3-0.4-0.5-0.5-0.8
		c-1.1-1.5-1.1-3.2-0.9-4.9c0-0.3,0.3-0.5,0.6-0.5c0.2,0,0.4,0,0.6,0c-0.1-0.3-0.1-0.6-0.1-0.9c0.2,0,0.4,0.1,0.7,0.1
		c-0.1-0.2-0.3-0.3-0.4-0.4c-0.9-0.9-1.5-2-1.9-3.2c-0.7-2.7-2.3-4.8-4.5-6.4c-4-3-8.5-5-13.4-6c-2.9-0.6-5.9-0.4-8.7,0.8
		c-0.1,0-0.1,0-0.2,0.1c0,0,0-0.1,0-0.1c0.8-0.3,1.6-0.6,2.4-0.8c3-0.7,5.9-0.6,8.9,0.3c4.1,1.2,8,2.9,11.5,5.4
		c0.5,0.4,1,0.8,1.5,1.2c1.6,1.4,2.6,3.1,3.2,5c0.4,1.3,1.1,2.4,2,3.3c0.4,0.4,0.7,0.8,1,1.3c0.3,0.5,0.2,0.8-0.4,0.9
		c0.3,0.4,0.5,0.7,0.8,1.1c0.3,0.3,0.1,0.6-0.1,0.8c-0.1,0.1-0.4,0.1-0.5,0c-0.2-0.1-0.4-0.3-0.5-0.5c-0.3-0.4-0.6-0.6-1.1-0.7
		c0.1,1.4,0.1,2.9,1.2,4c0.6,0.6,1,1.4,1.6,2.1c0.2,0.2,0.4,0.5,0.6,0.7c0.4,0.5,0.8,1.1,0.9,1.7c0.2,0.6,0.1,1.1-0.5,1.5
		c-0.1,0-0.1,0.1-0.1,0.2c0.1,1.7,0.3,3.4,0.4,5.2c0,0,0,0.1,0,0.2c0.1-0.2,0.2-0.3,0.2-0.4c0.3-0.7,0.9-1.3,1.5-1.8
		c0.3-0.2,0.5-0.5,0.8-0.8c0.2-0.2,0.2-0.3,0.1-0.6c-0.8-2.2-1.3-4.4-1.5-6.7c-0.3-3.5,0.1-6.9,1.2-10.2c2.5-7.7,7.5-13.1,14.8-16.4
		c3-1.4,6.2-2.2,9.5-2.6c2.2-0.3,4.4-0.2,6.7,0.1c6.1,0.7,11.3,3.3,15.9,7.3c4.5,4,7.3,8.9,8.2,14.8c1.3,8.2-0.7,15.7-5.9,22.2
		c-3.8,4.8-8.8,7.8-14.8,9.1C100.6,68.3,98.6,68.5,96.7,68.5z"/>
	<path stroke="#000000" stroke-width="0.3034" stroke-miterlimit="10" d="M74.7,4.7C73.5,4.4,72.3,4.2,71,4
		c-1.7-0.2-3.4-0.4-5.1-0.6c-1.6-0.1-3.2-0.2-4.9-0.2c-7.2,0-14.1,1.3-20.8,3.9c-6.5,2.5-12.4,6-17.6,10.7
		C16.9,23,12.3,29.1,9.1,36.2c-1.7,3.8-3,7.8-3.7,12c-0.5,3.2-0.8,6.3-0.8,9.5c0.1,6.8,1.4,13.4,4.1,19.7
		c2.5,5.8,5.9,11.1,10.3,15.7c5.8,6.1,12.6,10.7,20.4,13.8c4.1,1.6,8.3,2.8,12.7,3.5c3.1,0.5,6.2,0.7,9.3,0.7c1.7,0,3.5-0.1,5.2-0.3
		c2.1-0.2,4.2-0.5,6.3-0.8c6.9-1.2,13.3-3.8,19.2-7.5c5.4-3.4,10.2-7.4,14.2-12.3c4.1-5.1,7.1-10.7,9.2-16.9c0-0.1,0.1-0.3,0.2-0.4
		c-3.3,10.6-9.4,19.2-18,26.2c3.5-2.8,6.7-5.9,9.5-9.4c2.8-3.6,5.1-7.4,6.9-11.6c-0.1,1.4-4.7,9.1-7.2,12.2c-3,3.7-6.3,7-10.2,9.9
		c-3.8,2.8-7.8,5.3-12.2,7.1c6.9-2.8,12.9-6.8,18.2-12c-0.3,0.6-4.1,3.8-6.5,5.6c-2.3,1.7-4.7,3.2-7.2,4.6
		c12.9-6.9,22.3-17,27.3-30.8c-0.2,0.6-0.4,1.2-0.7,1.8c-3.3,8.4-8.3,15.6-15.2,21.5c-7,6-14.9,10.4-24,12.6
		c-2.6,0.6-5.2,1.2-7.9,1.4c-2.4,0.2-4.8,0.4-7.1,0.5c-1.6,0.1-3.3,0-4.9-0.2c-2-0.2-4-0.4-6.1-0.7c-3.4-0.6-6.8-1.5-10.1-2.7
		c-7.4-2.7-13.9-6.7-19.7-12C14.7,90.9,9.9,84,6.9,76c-1.3-3.3-2.2-6.8-2.8-10.3C3.6,62,3.4,58.4,3.5,54.8
		c0.3-6.5,1.8-12.7,4.4-18.6c2.2-5.1,5.2-9.8,8.9-14c6.1-6.9,13.4-12.2,22-15.6c4.2-1.7,8.5-2.9,12.9-3.6c3.4-0.5,6.8-0.9,10.2-0.8
		c2.3,0.1,4.6,0.3,6.9,0.5c1.5,0.1,3,0.4,4.4,0.6c-6.3-1-12.7-1.3-19.1-0.5c1.8-0.1,3.5-0.3,5.3-0.3c1.8,0,3.5,0,5.3,0.1
		c1.7,0.1,3.5,0.3,5.2,0.5c-10-1.2-19.7-0.2-29.1,3.4c3.9-1.3,7.9-2.4,11.9-3c4.1-0.6,8.2-0.7,12.3-0.5c-6.9-0.3-13.6,0.4-20.2,2.4
		c0.1,0,0.2,0,0.3-0.1c2.9-0.8,5.8-1.4,8.7-1.8C56.4,3.2,58.9,3,61.5,3c2,0,4,0.2,5.9,0.4c2.3,0.3,4.6,0.7,6.8,1
		C74.4,4.5,74.6,4.6,74.7,4.7L74.7,4.7z M87.8,106.1C87.8,106.1,87.8,106.1,87.8,106.1c0.4-0.1,0.8-0.3,1.2-0.5c0,0,0,0,0-0.1
		C88.6,105.7,88.2,105.9,87.8,106.1z"/>
	<path stroke="#000000" stroke-width="0.3034" stroke-miterlimit="10" d="M84.4,82.4c-0.1,0-0.1-0.1-0.2-0.1c-1.3-0.6-1.8-1.6-1.4-3
		c0.3-1.3,1.1-2.2,2.1-3c1.5-1.1,3.2-1.8,5-2.1c2-0.4,3.9-0.5,6-0.3c0,0.1,0,0.2,0,0.4c-0.4,0-0.8,0.1-1.2,0.1
		c-1.3,0.2-2.4,1-3.4,1.8c-1.9,1.5-3.4,3.4-4.8,5.4c-0.2,0.2-0.3,0.5-0.5,0.8c1.6-0.1,3-0.4,3.9-1.8c0.2-0.3,0.4-0.7,0.6-1
		c0.2-0.3,0.2-0.3,0.6-0.3c-0.6,1.5-1.4,2.7-3,3.2c-0.7,0.2-1.4,0.2-2.1,0.3c-0.1,0-0.3,0.1-0.4,0.2c-1.3,2-2.8,3.9-4.4,5.7
		c0,0,0,0.1-0.1,0.1c1.4-0.4,2.8-1,3.9-2c0.4-0.3,0.7-0.6,1-1c1.1-1.1,2.4-1.7,4-1.7c0.6,0,0.8,0.2,0.8,0.7c0.4-0.1,0.4-0.7,0.9-0.7
		c0.4,0,0.7-0.1,1.2-0.1c-0.2,0.3-0.4,0.5-0.6,0.7c-0.9,1-1.7,2-2.6,3c-0.2,0.2-0.4,0.5-0.5,0.7c-0.1,0.1-0.1,0.2-0.2,0.4
		c0,0,0,0.1,0.1,0.1c0.2-0.1,0.4-0.1,0.6-0.2c0.8-0.6,1.6-1.1,2.4-1.7c0.8-0.6,1.6-1.3,2.4-2c0.1-0.1,0.2-0.3,0.2-0.4
		c0.1-0.4,0.4-0.7,0.7-0.7c0.3,0,0.6,0.1,0.6,0.4c0,0.3-0.1,0.5-0.5,0.6c0,0-0.1,0-0.1,0c0.6,0.1,1.3,0.1,1.8-0.3
		c0.4-0.3,0.7-0.6,1-0.8c0.2-0.1,0.5-0.3,0.6,0c0.2,0.2,0,0.5-0.2,0.6c-0.4,0.3-0.9,0.5-1.4,0.7c-0.2,0.1-0.3,0.1-0.4,0.2
		c-0.7,0.6-1.5,1.2-2.2,1.9c-0.1,0-0.1,0.1-0.2,0.1c0.4,0,0.7,0,1,0c0.6,0.1,0.8,0.6,0.5,1.1c-0.1,0.1-0.2,0.2-0.3,0.4
		c0,0,0,0,0.1,0.1c0.2-0.1,0.3-0.2,0.5-0.3c1-0.9,2-1.7,3-2.6c0.4-0.3,0.8-0.7,1.2-1c0.1-0.1,0.2-0.2,0.2-0.4
		c0.1-0.4,0.3-0.7,0.7-0.7c0.3,0,0.5,0,0.6,0.3c0.1,0.3,0,0.5-0.4,0.7c0,0-0.1,0-0.1,0.1c0.6,0.2,1.4,0,1.8-0.3
		c0.2-0.2,0.5-0.4,0.7-0.6c0.1-0.1,0.3-0.2,0.5-0.3c0.1,0,0.3,0,0.4,0.1c0.1,0.1,0,0.3,0,0.4c-0.1,0.2-0.2,0.3-0.4,0.4
		c-0.2,0.2-0.5,0.3-0.8,0.4c-0.5,0.1-0.9,0.4-1.2,0.7c-0.6,0.6-1.3,1.1-1.9,1.6c0.3,0,0.6,0,0.9,0c0.6,0.1,0.9,0.6,0.5,1.1
		c-0.1,0.1-0.2,0.2-0.2,0.4c0.1-0.1,0.2-0.1,0.3-0.2c1.1-0.9,2.2-1.9,3.3-2.8c0.1-0.1,0.1-0.2,0.1-0.4c0-1.4-0.3-2.7-0.6-4
		c-0.3-1.3-0.7-2.6-0.6-4c0.1-1.5,0.5-3,1-4.4c0.6-1.8,1.3-3.6,1.9-5.4c0,0,0-0.1,0.1-0.1c-0.2,0.9-0.4,1.8-0.6,2.7
		c-0.6,2.7-1.1,5.4-1,8.2c0,1.1,0.2,2.2,0.2,3.2c0.1,1.8,0.1,3.5-0.4,5.2c0,0.1-0.1,0.3-0.2,0.4c0-0.3,0.1-0.6,0.1-0.9
		c0,0,0,0-0.1,0c-0.1,0.1-0.1,0.1-0.2,0.2c-0.9,0.8-1.8,1.6-2.7,2.3c-0.3,0.2-0.6,0.3-1,0.5c-0.3,0.1-0.5,0-0.7-0.2
		c-0.2-0.2-0.2-0.5,0-0.7c0.2-0.2,0.4-0.5,0.6-0.7c-0.2,0-0.4,0-0.5,0c-0.7,0.2-1.4,0.4-1.8,1c-0.2,0.2-0.4,0.4-0.6,0.5
		c-0.2,0.1-0.4,0.2-0.6,0c-0.2-0.2,0-0.4,0.1-0.5c0.1-0.2,0.3-0.3,0.5-0.4c1.1-0.6,2-1.5,3-2.3c0.2-0.2,0.5-0.4,0.7-0.6
		c-0.4-0.1-0.9-0.1-1.4-0.2c-0.5,0.5-1.2,1-1.9,1.6c-0.8,0.7-1.6,1.4-2.5,2.1c-0.3,0.2-0.6,0.3-0.9,0.5c-0.3,0.1-0.5,0-0.7-0.2
		c-0.2-0.2-0.2-0.5,0-0.7c0.2-0.2,0.4-0.5,0.6-0.7c-0.2,0-0.3,0-0.5,0c-0.7,0.2-1.3,0.4-1.8,1c-0.2,0.2-0.4,0.4-0.6,0.6
		c-0.2,0.2-0.4,0.2-0.6,0c-0.2-0.2,0-0.4,0.1-0.6c0.2-0.2,0.4-0.4,0.6-0.5c1.3-0.7,2.3-1.9,3.6-2.8c-0.5-0.1-0.9-0.1-1.4-0.2
		c-0.9,0.8-1.9,1.6-2.9,2.4c-0.5,0.4-1,0.8-1.5,1.2c-0.4,0.2-0.8,0.4-1.3,0.5c-0.4,0.1-0.6-0.1-0.6-0.5c0-0.3,0.1-0.6,0.1-0.9
		c-0.2,0.1-0.3,0.3-0.4,0.4c-0.5,0.3-1.1,0.7-1.6,1c-0.8,0.3-1.4-0.1-1.5-0.9c0-0.3,0-0.7,0-1c0,0,0,0,0,0c-1.3,1-2.8,1.6-4.4,2
		c-0.2,0.1-0.4,0.2-0.6,0.4c-2,1.8-4,3.5-6.4,4.7c-1.3,0.7-2.6,1.2-4,1.4c-0.7,0.1-1.4,0.1-2.1,0c-1.4-0.3-1.7-1.5-0.8-2.5
		c0.6-0.7,1.5-1.1,2.4-1.5c1.9-0.8,3.9-1.3,5.9-1.7c1.2-0.2,2.4-0.4,3.6-0.6c0.2,0,0.4-0.2,0.6-0.3c1.4-1.8,2.8-3.6,4.3-5.4
		C83.8,83.2,84,82.8,84.4,82.4z M78.5,89.7c-0.3,0-0.6,0.1-0.8,0.1c-2.4,0.4-4.8,0.9-7.1,1.7c-1.1,0.4-2.1,0.8-3.1,1.4
		c-0.3,0.2-0.6,0.5-0.7,0.9c-0.3,0.5-0.1,0.9,0.4,1.1c0.3,0.1,0.6,0.3,0.9,0.3c1.1,0.1,2.2-0.1,3.2-0.4c2.8-1.1,5.1-2.8,7.2-4.9
		C78.5,89.9,78.5,89.8,78.5,89.7z M93.6,74.2c0,0,0-0.1,0-0.1c-0.9,0.1-1.9,0.1-2.8,0.3c-1.9,0.3-3.8,0.9-5.4,2.2
		c-1,0.8-1.8,1.7-2.2,2.9c-0.4,1.2,0.1,2.1,1.2,2.5c0.2,0.1,0.3,0.1,0.5-0.1c0.4-0.4,0.7-0.8,1.1-1.3C88.2,78.1,90.5,75.6,93.6,74.2
		z M89.9,84.4C89.8,84.4,89.8,84.4,89.9,84.4c-0.5,0.1-0.9,0.2-1.3,0.5c-1.1,0.8-2,1.8-2.7,3c-0.1,0.1-0.1,0.3-0.2,0.4
		c-0.1,0.4,0.1,0.6,0.5,0.5c0.3-0.1,0.6-0.2,0.9-0.4c1.1-0.7,2-1.5,2.8-2.6c0.2-0.3,0.4-0.6,0.5-0.9C90.4,84.6,90.3,84.4,89.9,84.4z
		"/>
	<path stroke="#000000" stroke-width="0.3034" stroke-miterlimit="10" d="M14.4,69.9c0.2-0.4,0.3-0.8,0.5-1.3
		c0.1-0.2,0.2-0.4,0.3-0.6c0.3-0.4,0.6-0.5,1-0.1c0.4,0.4,0.8,0.8,1.1,1.2c0.2,0.3,0.5,0.5,0.8,0.9c0.1-0.3,0.2-0.4,0.2-0.6
		c0.1-0.2,0.1-0.3,0.2-0.5c0.4-0.8,0.9-0.8,1.5-0.2c0.2,0.3,0.4,0.6,0.7,0.9c0.3-0.3,0.5-0.6,0.8-0.9c0.8-1,1.8-1.8,2.8-2.6
		c0.1-0.1,0.3-0.1,0.4-0.2c0.2-0.1,0.4-0.1,0.5,0.2c0.3,0.7,0.8,1.2,1.4,1.7c0.6,0.4,1,0.6,1.6,0.1c0.6-0.5,1.3-0.3,2,0.2
		c0.2,0.1,0.4,0.3,0.6,0.5c0,0,0,0,0.1-0.1c-0.1-0.2-0.2-0.4-0.4-0.5c-0.5-0.4-1-0.6-1.6-0.7c-0.1,0-0.2,0-0.3-0.1
		c-0.3-0.1-0.4-0.3-0.2-0.5c0.2-0.2,0.5-0.5,0.7-0.6c0.4-0.2,0.9-0.4,1.3-0.5c0.1,0,0.4,0,0.5,0.1c0.1,0.1,0,0.3,0,0.5
		c0,0.2-0.1,0.3-0.3,0.4c0.1-0.2,0.2-0.3,0.2-0.5c0.1-0.3,0-0.5-0.3-0.4c-0.8,0.1-1.4,0.5-1.9,1c-0.2,0.2-0.1,0.4,0.2,0.4
		c0.6,0.1,1.1,0.2,1.5,0.6c0.3,0.3,0.5,0.6,0.7,0.9c0.1,0.1,0,0.3,0,0.4c-0.1,0-0.3,0-0.4-0.1c-0.3-0.2-0.6-0.4-0.9-0.7
		c-0.3-0.3-0.6-0.3-1-0.1c-0.3,0.1-0.6,0.3-0.8,0.4c-0.4,0.3-0.8,0.2-1.2,0c-0.7-0.4-1.2-1-1.6-1.7c-0.1-0.1-0.1-0.2-0.2-0.3
		c-0.3,0.3-0.6,0.5-0.9,0.7c-0.9,0.7-1.6,1.5-2.3,2.3c-0.1,0.1-0.2,0.2-0.3,0.3c-0.4,0.4-0.9,0.4-1.3,0c-0.1-0.2-0.3-0.3-0.4-0.5
		c-0.1-0.1-0.3-0.2-0.4-0.3c-0.1,0.2-0.2,0.3-0.3,0.5c-0.1,0.2-0.1,0.4-0.2,0.6c-0.2,0.7-0.6,0.9-1.2,0.4c-0.5-0.4-0.9-0.9-1.4-1.4
		c-0.1-0.1-0.2-0.2-0.3-0.4c0,0-0.1,0-0.1,0c-0.2,0.8-0.5,1.5-0.7,2.3c-0.1,0.2-0.1,0.5-0.2,0.7c-0.1,0.2-0.3,0.3-0.5,0.4
		c-0.1,0-0.4-0.2-0.5-0.3c-0.2-0.4-0.4-0.8-0.5-1.1c-0.4-0.9-0.9-1.6-1.7-2.2c-0.9-0.7-1.4-1.7-1.8-2.7c-0.6-1.6-0.9-3.3-1.1-5
		c-0.1-1.1-0.2-2.3-0.2-3.4c-0.1-3.3,0.6-6.5,2-9.5c1.7-3.4,3.3-6.9,5.1-10.3c2.4-4.7,5.8-8.5,9.9-11.7c0.4-0.3,0.9-0.7,1.3-1
		c-0.5,0.5-1.1,0.9-1.6,1.4c-4.6,3.7-7.9,8.4-10.3,13.8c-1.2,2.7-2.4,5.4-3.6,8.1c-0.8,1.8-1.3,3.7-1.5,5.7
		c-0.2,1.7-0.1,3.5,0.2,5.2c0.4,2.1,0.7,4.1,1.2,6.2c0.1,0.5,0.3,1,0.5,1.5c0.1,0.3,0.3,0.6,0.6,0.8C13.4,68.1,14.1,68.8,14.4,69.9z
		"/>
	<path stroke="#000000" stroke-width="0.3034" stroke-miterlimit="10" d="M49.6,84.2c-0.5,0.6-1,1.2-1.6,1.8
		c-0.6,0.7-1.2,1.4-1.8,2.1c-0.1,0.2-0.3,0.3-0.4,0.5c0,0.1,0,0.1,0,0.2c0.1,0,0.2,0.1,0.2,0c0.3-0.1,0.6-0.2,0.9-0.4
		c1-0.8,2.1-1.6,3.1-2.4c0.7-0.6,1.3-1.2,2-1.7c0.1-0.1,0.2-0.1,0.3-0.1c0.4,0,0.8,0,1.3,0c-0.1,0.1-0.2,0.2-0.3,0.3
		c-1.1,1.3-2.3,2.5-3.4,3.8c-0.1,0.1-0.1,0.1-0.2,0.2c0,0.1-0.1,0.2,0,0.3c0,0.1,0.2,0.1,0.3,0.1c0.4-0.1,0.9-0.2,1.3-0.4
		c1-0.5,1.9-1.2,2.8-2c0.4-0.4,0.7-1,0.9-1.6c0.1-0.2,0.1-0.5,0.3-0.7c0.1-0.1,0.3-0.2,0.4-0.2c0.1,0,0.2,0.2,0.2,0.3
		c-0.1,0.4-0.2,0.8-0.4,1.2c-0.2,0.4-0.5,0.7-0.8,1.1c0.5,0,0.9-0.1,1.2-0.5c1-1.2,2.3-1.8,3.7-2.1c0.2-0.1,0.5-0.1,0.7,0
		c0.6,0,1,0.6,0.7,1.2c-0.2,0.3-0.5,0.6-0.8,0.7c-0.8,0.5-1.7,0.7-2.6,0.7c-0.5,0-0.8,0.2-1.1,0.6c-0.1,0.2-0.3,0.5-0.4,0.7
		c-0.3,0.5-0.1,0.8,0.5,0.8c0.4,0,0.9-0.1,1.3-0.2c1.2-0.4,2.1-1.1,3.1-1.9c0.1-0.1,0.1-0.1,0.2-0.2c0.9-0.8,1.8-1.5,2.8-2.3
		c0.1-0.1,0.2-0.3,0.2-0.4c0-0.4,0.2-0.7,0.5-0.9c0.3-0.1,0.6-0.1,0.7,0.2c0.1,0.1,0.1,0.4,0,0.5c-0.2,0.3-0.4,0.2-0.7,0.1
		c0,0-0.1,0-0.1,0c0,0.3,0.1,0.4,0.4,0.4c0.1,0,0.2,0,0.2,0c0.6-0.1,1,0.3,0.7,0.9c-0.1,0.2-0.2,0.4-0.4,0.6
		c-0.7,0.8-1.4,1.6-2.2,2.5c-0.2,0.2-0.3,0.4-0.5,0.7c0,0,0.1,0.1,0.1,0.1c0.2-0.1,0.4-0.1,0.6-0.2c0.7-0.5,1.5-1,2.2-1.5
		c0.6-0.5,1.2-1,1.8-1.4c0.1-0.1,0.2-0.1,0.3-0.2c0.1,0.3,0,0.5-0.2,0.6c-1.1,0.8-2.2,1.7-3.3,2.5c-0.3,0.2-0.7,0.4-1.1,0.5
		c-0.4,0.1-0.7-0.1-0.7-0.5c0-0.7,0.2-1.4,0.7-1.9c0.5-0.6,1.1-1.3,1.6-1.9c0.1-0.1,0.1-0.2,0.2-0.3c-0.5-0.1-0.9-0.2-1.3,0.2
		c-1,0.9-2.1,1.8-3.1,2.6c-0.9,0.8-1.9,1.5-3.1,1.7c-0.2,0-0.5,0.1-0.7,0.1c-0.8,0-1.3-0.4-1.4-1.2c0-0.3,0-0.7,0.1-1
		c-0.4,0-0.8,0-1.1,0c-0.1,0-0.2,0.1-0.3,0.2c-0.8,0.7-1.6,1.3-2.5,1.7c-0.5,0.2-1,0.3-1.4,0.4c-0.6,0.1-0.9-0.3-0.8-0.9
		c0.1-0.4,0.3-0.8,0.5-1.2c0.1-0.1,0.2-0.2,0.2-0.4c-0.4,0.3-0.8,0.7-1.2,1c-0.5,0.4-1.1,0.8-1.7,1.1c-0.3,0.2-0.7,0.3-1,0.4
		c-0.5,0.1-0.8-0.2-0.7-0.7c0.1-0.4,0.2-0.8,0.4-1c0.5-0.8,1.1-1.5,1.7-2.2c0.1-0.1,0.1-0.2,0.2-0.3c-0.1,0-0.2,0.1-0.2,0.1
		c-0.7,0.5-1.4,1-2.1,1.6c-0.7,0.6-1.4,1.2-2.2,1.7c-0.7,0.5-1.5,0.7-2.3,0.8c-1.3,0.2-1.7-0.6-1.7-1.7c0-0.1,0-0.2,0.1-0.5
		c-0.2,0.1-0.3,0.2-0.4,0.3c-0.6,0.5-1.3,1-1.9,1.4c-0.3,0.2-0.7,0.3-1.1,0.4c-0.6,0.1-0.9-0.2-0.8-0.7c0.1-0.5,0.3-1,0.5-1.4
		c0.4-0.6,0.8-1.2,1.3-1.8c-0.4,0.4-0.9,0.7-1.4,1.1c-0.1-0.2-0.1-0.4,0.1-0.6c0.7-0.5,1.4-1.1,2.2-1.6c0.1-0.1,0.3-0.1,0.4-0.1
		c0.4,0,0.8,0,1.3,0c-0.3,0.3-0.5,0.6-0.8,0.9c-0.9,1-1.7,1.9-2.6,2.9c-0.2,0.3-0.5,0.5-0.5,1c0.3-0.1,0.6-0.1,0.9-0.3
		c0.8-0.5,1.5-1,2.3-1.6c0.5-0.4,0.9-0.8,1.3-1.2c1.1-1,2.3-1.7,3.8-1.8c0.4,0,0.8,0,1,0.5c0.2,0.4,0,0.8-0.4,1.1
		c-0.6,0.5-1.4,0.8-2.1,0.9c-0.4,0.1-0.9,0.1-1.3,0.2c-0.2,0-0.4,0.1-0.5,0.2c-0.3,0.3-0.5,0.7-0.7,1c-0.3,0.5-0.1,0.8,0.5,0.8
		c0.4,0,0.9-0.1,1.3-0.2c1.1-0.4,2.1-1.1,3-1.9c0.3-0.3,0.6-0.6,0.9-0.8c0.9-0.7,1.8-1.4,2.8-1.7C48.5,84.1,49,84.1,49.6,84.2
		C49.5,84.1,49.6,84.2,49.6,84.2z M41,86.2c1,0,2-0.2,2.8-1c0.2-0.2,0.4-0.4,0.3-0.7c-0.2-0.3-0.5-0.2-0.7-0.1
		C42.4,84.8,41.6,85.4,41,86.2z M57.3,86.2c1.1,0,2-0.2,2.8-1c0.2-0.2,0.4-0.4,0.2-0.6c-0.1-0.1-0.5-0.2-0.7-0.1
		C58.7,84.7,58,85.4,57.3,86.2z"/>
	<path stroke="#000000" stroke-width="0.3034" stroke-miterlimit="10" d="M34,82.3c-0.7,0.1-1.2,0.1-1.8,0.1c-0.5,0-0.8-0.4-0.8-0.8
		c0-0.5,0.4-0.8,0.9-0.8c0.6,0,1.1,0.2,1.5,0.6c0.2,0.2,0.4,0.2,0.6,0c1.3-1,2.4-2.2,2.8-3.8c0.2-0.7,0.1-1.3-0.3-1.8
		c-0.5,0.3-1,0.7-1.5,1.1c-2,1.5-3.6,3.5-5,5.6c-1.6,2.4-3.5,4.3-5.9,5.8c-2,1.4-4.2,1.9-6.6,1.7c-0.5-0.1-1.1-0.2-1.5-0.4
		c-0.6-0.3-0.9-1-0.7-1.6c0.1-0.3,0.4-0.5,0.8-0.5c0.3,0,0.5,0.1,0.5,0.4c0,0.2,0,0.4-0.1,0.6c-0.1,0.2-0.4,0.2-0.6,0.2
		c-0.1,0-0.1-0.1-0.2-0.1c0,0.4,0.2,0.7,0.5,0.8c0.5,0.2,1,0.4,1.5,0.4c2.5,0.2,4.7-0.5,6.4-2.4c1.4-1.4,2.7-2.9,3.9-4.4
		c1.8-2.2,3.8-4.1,5.9-5.9c0.6-0.5,1.3-1,2-1.4c-0.7-0.6-1.4-0.9-2.3-1c-4.1-0.5-7.8,0.6-10.8,3.5c-0.7,0.7-1.3,1.6-1.5,2.6
		c-0.1,0.3-0.1,0.7,0,1.1c0.1,0.7,0.6,1.2,1.3,1.1c0.6,0,1.1-0.1,1.7-0.3c2.2-0.9,4-2.4,5.3-4.5c0.4-0.7,0.7-1.5,0.7-2.3
		c0-0.1,0-0.1,0-0.2c0.1,0,0.3,0,0.4,0.1c0,0.6-0.1,1.2-0.4,1.8c-0.8,1.8-2,3.1-3.5,4.3c-1,0.7-2,1.3-3.2,1.6
		c-0.4,0.1-0.8,0.1-1.2,0.1c-1-0.1-1.6-0.8-1.6-1.8c0-1,0.3-1.8,0.8-2.6c1-1.5,2.4-2.5,3.9-3.3c2.3-1.1,4.7-1.7,7.2-1.6
		c1.3,0.1,2.5,0.4,3.5,1.2c0.2,0.1,0.3,0.1,0.4,0c0.7-0.4,1.5-0.7,2.2-1.1c0.3-0.2,0.5-0.1,0.7,0.2c-0.9,0.4-1.8,0.9-2.6,1.2
		c0.2,0.6,0.4,1.1,0.5,1.6c0.2,1.6-0.4,2.8-1.7,3.7c-0.6,0.4-1.3,0.8-1.9,1.2c0.1,0.4,0.3,0.7,0.4,1.1c0.2,1,0,1.9-0.4,2.8
		c-1.2,2.2-3,3.6-5.5,4.1C28.5,90,28.2,90,27.9,90c-1.1,0-1.5-0.6-1.3-1.7c0.2-0.7,0.5-1.3,1-1.8c1-1.1,2.1-1.8,3.5-2.2
		c0.1,0,0.1,0,0.2,0c0,0,0.1,0,0.1,0c0,0.1,0.1,0.2,0.1,0.3c-0.6,0.3-1.2,0.5-1.7,0.8c-1,0.5-1.8,1.2-2.3,2.2
		c-0.2,0.4-0.4,0.8-0.5,1.2c-0.1,0.5,0.2,0.8,0.7,0.8c0.9,0.1,1.7-0.2,2.4-0.6c1.5-0.9,2.5-2.3,3.2-3.8c0.3-0.6,0.5-1.3,0.7-2
		C34.1,82.8,34,82.5,34,82.3z M33.6,81.8c0,0,0-0.1,0-0.1c-0.1-0.1-0.2-0.2-0.3-0.3c-0.3-0.1-0.6-0.3-1-0.3c-0.3,0-0.5,0.2-0.5,0.5
		c0,0.3,0.2,0.4,0.5,0.4C32.7,82,33.2,81.9,33.6,81.8z"/>
	<path stroke="#000000" stroke-width="0.3034" stroke-miterlimit="10" d="M93.1,58c1,0.2,2,0.4,3.1,0.6c-0.3-0.7,0.2-1.2,0.3-1.8
		c-0.5-0.3-1-0.6-1.4-0.9c-0.8-0.5-1.6-1.1-2.2-2c-0.3-0.4-0.6-0.9-0.5-1.5c0.1-0.6,0.4-1.1,0.9-1.4c1.1-0.7,2.3-0.9,3.6-0.7
		c0.6,0.1,1.1,0.2,1.7,0.5c1,0.5,1.4,1.4,1,2.5c-0.3,0.9-0.9,1.6-1.5,2.3c-0.4,0.4-0.8,0.7-1.1,1.1c-0.1,0.1-0.1,0.2-0.1,0.4
		c0,0.2,0.1,0.4,0.1,0.5c0,0.3,0,0.6,0,0.9c0.9-0.2,1.7-0.9,2.6-1c0-0.7,0-1.3,0-1.9c0,0,0,0,0,0c0.1,0.3,0.2,0.5,0.3,0.8
		c0.5,1.3,1.3,2.3,2.4,3.2c0.4,0.3,0.8,0.6,1.2,1c0.3,0.3,0.6,0.7,0.6,1.1c-1.1-0.8-2.2-1.6-3.2-2.5c-0.5-0.4-0.8-0.9-1.2-1.4
		c-0.9,1.5-2.1,2.4-4,2.1C94.4,59.8,93.6,59.1,93.1,58z"/>
	<path stroke="#000000" stroke-width="0.3034" stroke-miterlimit="10" d="M107.1,45.9c-0.1-0.4-0.3-1-0.5-1.4c-0.4-0.9-1.1-1.3-2-1
		c-0.5,0.1-1,0.3-1.5,0.5c0.4,0.2,0.8,0.3,1,0.5c0.8,0.6,0.8,1.6,0,2.2c-0.5,0.3-1,0.4-1.6,0.4c1.4,0.3,2.8,0.7,4.1,1.3
		c3.3,1.7,4.9,4.4,5,8.1c0.1,2.4-0.6,4.6-2.1,6.5c-0.8,1-1.8,1.8-3,2.1c-0.2,0-0.4,0.1-0.5,0.1c-0.8,0.1-1.4-0.4-1.5-1.2
		c0-0.2,0-0.5,0-0.7C104,63,104,63,104,62.3c0.1,0.3-0.1,0.8,0.5,0.8c0.1-0.2,0.3-0.5,0.6-0.3c0.1,0.1,0.2,0.3,0.3,0.4
		c-0.1,0.3-0.3,0.4-0.5,0.3c0,0-0.1,0-0.1,0c0.1,0.4,0.2,0.8,0.3,1.2c0,0.1,0.1,0.1,0.2,0.1c0.7,0.1,1.3-0.1,1.8-0.4
		c0.7-0.4,1.3-1,1.7-1.6c0.7-1.1,1.1-2.2,1.3-3.5c0.2-1.3,0.2-2.7,0.1-4c-0.3-3-1.7-5.2-4.3-6.6c-1.5-0.8-3.2-1.3-4.8-1.5
		c-0.2,0-0.3-0.1-0.5-0.1c0.5,0.1,0.9,0.1,1.4,0.2c-1-0.7-1-0.7-1.2-1.4c-0.5,0.4-1,0.8-1.6,1.2c-0.3,0.2-0.6,0.5-0.9,0.7
		c-1,0.8-2.1,0.8-3.3,0.4c-0.8-0.3-1.6-0.8-2.2-1.4c-0.8-0.7-1.5-1.4-2.3-2c-0.9-0.7-1.8-1.2-2.9-1.2c0.9-0.3,1.8-0.2,2.6,0.3
		c0.5,0.3,0.9,0.6,1.3,1c0.3,0.2,0.5,0.5,0.8,0.7c1.5,1.3,3.2,1.6,5.1,1.2c0.7-0.2,1.3-0.4,1.8-0.8c1.1-0.7,2.2-1.3,3.3-1.9
		c0.8-0.4,1.6-0.7,2.5-0.7c0.8,0,1.4,0.3,1.7,1C107,44.7,107.1,45.3,107.1,45.9z M103.8,44.7c0-0.2-0.3-0.3-0.4-0.3
		c-0.1,0-0.3,0.1-0.3,0.3c0,0.3,0.2,0.4,0.3,0.4C103.4,45.1,103.9,45.1,103.8,44.7z"/>
	<path stroke="#000000" stroke-width="0.3034" stroke-miterlimit="10" d="M45.2,47.7c-0.5-0.2-1.1-0.5-1.6-0.7
		c-1.2-0.6-1.3-1.3-0.3-2.2c0.4-0.4,0.9-0.7,1.4-1c0.1-0.1,0.3-0.1,0.4-0.1c1.3-0.1,2.6-0.1,3.8,0.2c1.5,0.4,1.9,1.3,1.3,2.7
		c0,0.1-0.1,0.2-0.2,0.3c-0.3,0.5-0.6,0.5-0.9-0.1c-0.1,0.1-0.3,0.2-0.4,0.3c0,0.1,0.1,0.3,0.2,0.4c0,0,0.1,0.1,0.1,0.1
		c0.7,0.4,0.8,1.1,0.3,1.7c-0.4,0.5-1.1,0.6-1.6,0.9c-0.8,0.4-1.4,0.1-2-0.3c-0.4-0.3-0.8-0.6-1.2-1c-0.1-0.1-0.2-0.3-0.3-0.4
		c-0.2-0.4-0.1-0.7,0.3-0.9C44.8,47.7,45,47.7,45.2,47.7z M45.4,46.9C45.4,47,45.4,47,45.4,46.9c-0.3,0.2-0.1,0.6,0.1,0.7
		c0.1-0.1,0.3-0.2,0.3-0.2C45.8,47.1,45.6,46.8,45.4,46.9z"/>
	<path stroke="#000000" stroke-width="0.3034" stroke-miterlimit="10" d="M92.3,47.6c-1.9,0.4-3.6,1.2-5.1,2.4
		c-2.1,1.7-3.3,4-3.9,6.6c-0.3,1.2-0.4,2.5-0.4,3.7c0,2.5,1.7,4.4,4.2,4.7c0.5,0.1,1,0.1,1.6,0.1c0.3,0,0.4-0.1,0.3-0.4
		c0,0,0-0.1,0-0.1c-0.5-1,0.1-1.4,0.8-1.7c0.4-0.2,0.5-0.3,0.3-0.7c-0.2-0.5-0.1-1.1,0.1-1.6c0.1-0.1,0.1-0.3,0.3-0.4
		c1-1.1,1.7-2.3,2-3.8c0,0,0.1,0,0.1,0c0.1,0.8,0.2,1.6-0.1,2.3c-0.1,0.4-0.4,0.7-0.7,0.9c-0.6,0.6-1.1,1.2-1.4,2
		c-0.1,0.2-0.1,0.5-0.1,0.7c0,0.3,0,0.4-0.3,0.5c-0.2,0-0.3,0.1-0.5,0.2c-0.4,0.3-0.5,0.6-0.4,1.1c0.1,0.2,0.1,0.3,0.2,0.5
		c0.1,0.3,0,0.5-0.3,0.6c-2.8,0.5-5.7-0.6-6.9-3.6c-0.7-1.8-0.6-3.6,0-5.3c1.6-4.7,4.8-7.7,9.7-8.7C91.8,47.6,92,47.6,92.3,47.6z"/>
	<path stroke="#000000" stroke-width="0.3034" stroke-miterlimit="10" d="M33.2,64.5c0.2,0.5,0.3,1,0.5,1.5c0.3-0.4,0.4-0.8,0.4-1.2
		c0.1-1.3-0.3-2.5-0.7-3.8c-0.2-0.5-0.3-1-0.6-1.5c-0.7-1.5-1-3-1.1-4.6c-0.1-0.6-0.1-1.1-0.2-1.7c-0.2-0.8-0.1-1.7,0-2.5
		c0.4-2.9,0.3-5.9-1-8.6c-0.1-0.3-0.3-0.6-0.5-0.9c-0.4-0.6-0.6-1.3-0.6-2.1c0-1,0-2.1,0-3.1c0,0.8,0.1,1.5,0.1,2.3
		c0,0.5,0.1,0.9,0.2,1.4c0.1,0.4,0.3,0.9,0.5,1.2c1.3,1.8,2,3.8,2.3,5.9c0.2,1.7,0.5,3.3,0.7,5c0,0.4-0.1,0.8-0.1,1.3
		c-0.3,2.2-0.1,4.4,0.6,6.6c0.5,1.5,0.8,2.9,0.7,4.5c0,0.5-0.2,1.1-0.3,1.6c0,0.1-0.2,0.2-0.3,0.3c-0.1-0.1-0.3-0.2-0.3-0.3
		c-0.1-0.4-0.2-0.8-0.4-1.2C33.2,64.5,33.2,64.5,33.2,64.5z"/>
	<path stroke="#000000" stroke-width="0.3034" stroke-miterlimit="10" d="M37.7,23.7c0.6,0.2,1.1,0.7,1.2,1.4
		c0.2,0.8,0.7,1.3,1.5,1.6c0.2,0.1,0.3,0.1,0.5,0.2c0.4,0.2,0.8,0.3,1.2,0.2c0.4-0.1,0.6,0.1,0.7,0.5c0.2,0.7,0.5,1.3,0.6,2
		c0.4,2.1,0.6,4.3,0.6,6.5c0,0.8-0.1,1.5-0.2,2.3c-0.2,1.3-1.1,2.1-2,2.9c-1.4,1.1-3,1.8-4.7,2.3c-0.1,0-0.2,0.1-0.4,0.1
		c0.1,0.4,0.2,0.8,0.4,1.2c0.3,1.1,0.2,2.1-0.6,2.9c-0.1,0.1-0.2,0.2-0.4,0.4c0.7,0.1,1.3,0.1,1.9,0.2c-0.2,0.1-0.4,0.2-0.5,0.2
		c0.6,1.2,1.7,1.5,2.8,1.9c-0.1,0-0.3,0.1-0.5,0.2c0.3,0.7,0.2,1.3-0.4,1.9c0.2-0.4,0.3-0.6,0.4-0.9c0.1-0.3,0.1-0.6-0.1-0.9
		c-0.7,0.3-1.4,0.6-2.2,1c0.6-0.8,1.1-1.3,1.8-1.5c-0.3-0.1-0.6-0.2-0.8-0.3c-0.2-0.1-0.3-0.2-0.4-0.3c-0.2-0.2-0.3-0.3-0.4-0.5
		c-0.2-0.3-0.5-0.4-0.8-0.2c-0.2,0.1-0.4,0.1-0.6,0.1c-0.2,0-0.4,0-0.7,0c0.3-0.2,0.5-0.3,0.8-0.5c-0.3-0.1-0.5-0.1-0.8-0.2
		c0.2-0.1,0.3-0.2,0.4-0.3c1-0.8,1.2-1.8,0.9-2.9c-0.1-0.4-0.3-0.8-0.4-1.2c-0.1-0.4,0-0.6,0.4-0.7c0.9-0.4,1.9-0.7,2.8-1.2
		c1.6-0.8,2.6-2.1,3.4-3.7c0.4-0.8,0.4-1.6,0.4-2.4c0.1-2.3,0-4.5-0.3-6.8c-0.1-0.4-0.2-0.8-0.4-1.2c-0.1-0.4-0.4-0.4-0.7-0.4
		c-0.2,0-0.5,0-0.6-0.1c-0.5-0.3-1.1-0.6-1.6-0.9c-0.4-0.3-0.8-0.7-0.8-1.3c0-0.5-0.3-0.8-0.6-1.1C38,24,37.8,23.8,37.7,23.7z"/>
	<path stroke="#000000" stroke-width="0.3034" stroke-miterlimit="10" d="M53.6,51.6c1,0.5,1,0.5,2.1,2.1c-0.5-0.3-0.9-0.6-1.3-0.8
		c-0.1-0.1-0.3-0.1-0.5-0.2c-0.1,0-0.1-0.1-0.2-0.1c-0.1-0.2-0.3-0.4-0.4-0.6c-0.3,0.7-0.5,1.3-0.8,2c-0.2,0.4-0.4,0.8-0.5,1.2
		c-0.2,0.4-0.4,0.5-0.8,0.6c-0.7,0.1-1.4-0.1-2.1-0.3c-0.7-0.3-1.3-0.6-2-0.8c-1.2-0.4-2.3-0.4-3.4,0.1c-0.8,0.4-1.7,0.7-2.6,0.7
		c-1.8,0.1-3.6-0.3-5.2-1c-0.2-0.1-0.5-0.2-0.7-0.3c-0.4-0.2-0.8-0.3-1.2-0.5c-0.3-0.2-0.5-0.5-0.5-0.9c0-0.4,0.2-0.7,0.6-0.7
		c0.4-0.1,0.7,0.1,0.8,0.5c0.1,0.3,0.2,0.4,0.4,0.6c1.2,1.6,4.1,2,5.4,1.9c1,0,1.9-0.3,2.8-0.7c0.9-0.4,1.8-0.7,2.8-0.5
		c0.6,0.1,1.2,0.4,1.8,0.6c0.7,0.2,1.3,0.6,2,0.8c0.4,0.1,0.8,0.1,1.2,0.1c0.1,0,0.2-0.1,0.3-0.2c0.4-0.9,0.9-1.9,1.3-2.8
		c0.1-0.3,0.1-0.5-0.2-0.6c-0.1-0.1-0.2-0.2-0.3-0.3c0.2,0.1,0.4,0.2,0.7,0.2c0.3-0.9,0.4-1.8,0.3-2.5c-0.4-0.3-0.7-0.6-1-0.8
		c0,0,0-0.1,0-0.1c0.3,0,0.5,0,0.8,0c-0.3-1.7-1.1-3.2-1.8-4.8c1,1.4,1.8,3,2.2,4.7c0,0.2,0.2,0.5,0.2,0.7c0,0.1-0.1,0.2-0.1,0.4
		C53.7,49.8,53.7,50.7,53.6,51.6z"/>
	<path stroke="#000000" stroke-width="0.3034" stroke-miterlimit="10" d="M32.9,38.3c0.9-0.3,1.6-0.9,2.4-1.4
		c0.3-0.3,0.7-0.5,1.1-0.7c0.7-0.4,1.2-0.3,1.7,0.2c0.1,0.1,0.2,0.2,0.3,0.3c0.7,0.4,1,1,1,1.8c0,0.5,0.1,1,0.6,1.3c0,0,0,0-0.1,0.1
		c-0.2-0.2-0.4-0.3-0.6-0.5c-0.2,0.3-0.4,0.6-0.7,0.9c0.3,0,0.6,0,0.8-0.1c-1.1,0.3-2.1,0.7-3.3,0.8c-0.5,0-1.1-0.2-1.4-0.6
		c-0.5-0.6-0.9-1.2-1.3-1.8c0.8,1,1.6,1.8,3,1.6c-0.5-0.4-0.7-1-0.8-1.6c0-0.6,0.2-1.2,0.6-1.7c-0.2,0.1-0.3,0.1-0.5,0.2
		c-0.5,0.3-1,0.6-1.6,0.8C33.9,38.1,33.4,38.1,32.9,38.3L32.9,38.3z M37.6,36.6c-0.3,0.3-0.3,0.6,0,0.9C37.9,37.3,37.9,37,37.6,36.6
		z"/>
	<path stroke="#000000" stroke-width="0.3034" stroke-miterlimit="10" d="M49.9,39.4c0.4,0.4,0.8,0.9,1.3,1c-0.1-0.5-0.3-1-0.4-1.4
		c0-0.5,0.1-1,0.1-1.5c-0.2,0.1-0.4,0.3-0.7,0.5c-0.2,0.2-0.4,0.4-0.6,0.6c0,0-0.1,0-0.1-0.1c0.4-0.5,0.8-1,1.3-1.4
		c0.5-0.4,1-0.7,1.5-1c0.1-0.1,0.2-0.1,0.3-0.1c0.5,0.2,1.1,0.4,1.4,0.9c0.3,0.4,0.4,0.8,0.4,1.3c0,0.3,0,0.7,0.3,0.9
		c-0.4,0-0.4-0.3-0.5-0.6c-0.1-0.4-0.2-0.9-0.6-1.2c-0.2-0.2-0.5-0.3-0.7-0.4c0.6,0.9,0.6,1.9,0.4,2.8c0,0,0.1,0,0.1,0
		c0.2-0.3,0.4-0.7,0.6-1c0,0.7-0.3,1.2-0.8,1.6c-0.2,0.1-0.4,0.3-0.6,0.4c-0.2,0.1-0.5,0.4-0.7,0.4c-0.5-0.1-1-0.2-1.3-0.5
		C50.3,40.4,50.1,39.9,49.9,39.4C49.8,39.4,49.8,39.4,49.9,39.4z M51.6,38.4c0.4,0,0.5-0.2,0.5-0.4c0-0.1-0.2-0.3-0.4-0.4
		c-0.2-0.1-0.4,0.1-0.4,0.4C51.4,38.1,51.5,38.3,51.6,38.4z"/>
	<path stroke="#000000" stroke-width="0.3034" stroke-miterlimit="10" d="M15.3,53.6c-0.1-0.8-0.1-1.6-0.2-2.4
		c0-0.4,0.1-0.6,0.4-0.9c0.3-0.2,0.5-0.5,0.6-0.9c0.3-0.9,0.5-1.9,0.7-2.9c0.1-0.3,0.1-0.7,0.3-1c0.1-0.2,0.3-0.3,0.4-0.4
		c1.2-0.3,2.1-1,2.6-2c0.6-1.2,1.2-2.4,1.8-3.6c0.1-0.1,0.1-0.3,0.2-0.4c-0.2,0.8-0.5,1.5-0.7,2.3c-0.1,0.2-0.1,0.5-0.2,0.7
		c-0.3,1.3-0.9,2.5-1.9,3.5c-0.4,0.4-0.8,0.8-1.2,1.3c-0.2,0.2-0.3,0.4-0.4,0.7c-0.2,0.4-0.4,0.9-0.6,1.3c-0.4,0.8-0.9,1.4-1.6,1.9
		c-0.1,0.1-0.3,0.3-0.3,0.5c-0.1,0.6-0.1,1.2-0.1,1.8C15.3,53.4,15.3,53.5,15.3,53.6C15.3,53.6,15.3,53.6,15.3,53.6z"/>
	<path stroke="#000000" stroke-width="0.3034" stroke-miterlimit="10" d="M23.4,47.1c-1,0.4-1.2,1.2-1.2,2.1c0,1.4,0.1,2.8,0.1,4.2
		c0,0.5,0,0.9,0,1.4c0,0.2-0.1,0.5-0.3,0.6c-0.6,0.5-1.2,0.8-2,0.7c-0.3-0.1-0.5,0-0.6,0.3c-0.2,0.4-0.4,0.8-0.5,1.2
		c-0.2,0.4-0.3,0.8-0.5,1.2c-0.4,0.8-1.2,1.3-2.1,1.6c0.2-0.2,0.4-0.3,0.7-0.5c0.9-0.5,1.1-1.4,1.3-2.3c0.1-0.6,0.3-1.1,0.5-1.7
		c0.2-0.6,0.7-1.1,1.4-1.1c0.3,0,0.5-0.1,0.4-0.5c0-0.1,0-0.1,0.1-0.2c0.7-0.6,0.7-1.4,0.8-2.1c0.2-1.1,0.3-2.1,0.5-3.2
		c0.1-0.5,0.4-0.9,0.7-1.3C22.7,47.3,23.1,47.2,23.4,47.1C23.4,47.1,23.4,47.1,23.4,47.1z"/>
	<path stroke="#000000" stroke-width="0.3034" stroke-miterlimit="10" d="M45.7,38.9c-0.2,0.3-0.4,0.6-0.6,0.8
		c-0.1,0.1-0.3,0.2-0.4,0.2c-0.1,0-0.2-0.2-0.2-0.3c-0.2-0.9-0.1-1.8,0.1-2.7c0.4-1.7,0.8-3.4,1.1-5.1c0.2-1,0.3-2.1,0.4-3.1
		c0.2-1.5,0.7-2.8,1.3-4.2c-0.2,0.6-0.4,1.2-0.5,1.8c-0.4,1.3-0.6,2.7-0.6,4c-0.1,2.3-0.4,4.6-0.9,6.8c-0.1,0.6-0.2,1.2-0.3,1.8
		c0.1-0.1,0.1-0.3,0.2-0.4c0.1-0.1,0.2-0.2,0.3-0.3c0.1,0.1,0.2,0.2,0.3,0.3c0.1,0.2,0.2,0.5,0.3,0.8c0.2,0.6,0.5,0.7,1.1,0.4
		c0.1-0.1,0.2-0.1,0.3-0.1c0.3-0.1,0.5,0,0.6,0.2c0.2,0.5,0.6,0.7,1,0.9c0.3,0.1,0.6,0.3,1,0.4c0,0,0,0.1,0,0.1
		c-0.5-0.2-1-0.4-1.5-0.7c-0.2-0.1-0.4-0.4-0.6-0.6c-0.1-0.1-0.2-0.1-0.3-0.1c-0.3,0.1-0.5,0.2-0.8,0.3c-0.5,0.1-0.8,0-1-0.4
		C45.9,39.5,45.8,39.2,45.7,38.9z"/>
	<path stroke="#000000" stroke-width="0.3034" stroke-miterlimit="10" d="M55.9,39.6c-0.1,1.4-0.2,2.9-0.3,4.3
		c-0.1,1.3-0.1,2.6-0.1,3.9c0,0.4,0.1,0.8,0.3,1.2c0.4,1,0.7,2,0.8,3.1c0,0.4,0.2,0.9,0.3,1.3c-0.1-0.3-0.4-0.6-0.4-0.9
		c-0.4-1.4-1-2.7-1.9-3.9c-0.7-1-0.7-2.1-0.3-3.2c0.4-1.2,0.8-2.3,1.1-3.5c0.2-0.7,0.3-1.4,0.4-2C55.8,39.8,55.8,39.7,55.9,39.6
		C55.9,39.6,55.9,39.6,55.9,39.6z"/>
	<path stroke="#000000" stroke-width="0.3034" stroke-miterlimit="10" d="M88.5,48.3c-0.6,0-1-0.2-1.4-0.5c-0.8-0.7-0.6-1.9,0.3-2.5
		c0.5-0.3,1.1-0.4,1.7-0.2c0.8,0.3,1.3,0.9,1.2,1.7c-0.1,0.7-0.7,1.3-1.5,1.4C88.7,48.3,88.6,48.3,88.5,48.3z M89,45.8
		c0-0.2-0.3-0.2-0.4-0.2c-0.1,0-0.3,0.1-0.2,0.3c0,0.2,0.2,0.2,0.3,0.2C88.7,46,89,46,89,45.8z"/>
	<path stroke="#000000" stroke-width="0.3034" stroke-miterlimit="10" d="M48.1,56c-0.7,1-1.6,1.5-2.8,1.7c-1.6,0.3-3.1,0.3-4.7,0.2
		c-1.3-0.1-2.6-0.2-3.9-0.4c-1.2-0.2-2.2-0.8-2.8-1.9c0,0,0.1,0,0.1,0c0.9,1.3,2.2,1.7,3.7,1.6c0.9,0,1.7-0.1,2.6-0.2
		c1-0.1,2,0.1,3,0.2c0.7,0.1,1.3,0.1,2,0.1c1.1,0,1.9-0.6,2.7-1.3C48,56.1,48,56,48.1,56z"/>
	<path stroke="#000000" stroke-width="0.3034" stroke-miterlimit="10" d="M56.1,64.8c-0.1-0.5-0.1-1.1-0.2-1.6
		c0-0.3-0.1-0.6-0.6-0.5c-0.2,0-0.4-0.1-0.5-0.3c-0.5-0.6-0.5-1.4-0.2-2.1c0.1-0.1,0.1-0.3,0.2-0.4c0.7-0.9,1-2,1.1-3.1
		c0-0.1,0-0.1,0-0.2c0-0.1,0-0.2,0.1-0.3c0,0.1,0,0.3,0,0.4c0,1.2,0.1,2.5,0,3.7c0,0.5-0.2,0.9-0.4,1.4c0-0.1,0,0,0,0
		c0.7,0.3,0.8,0.9,0.6,1.6C56.3,64,56.2,64.4,56.1,64.8C56.1,64.9,56.1,64.9,56.1,64.8z"/>
	<path stroke="#000000" stroke-width="0.3034" stroke-miterlimit="10" d="M40.4,61.4c0.1,0.9,0.3,1.7,0.4,2.6c0.2,1.1,0,2.2-0.2,3.3
		c-0.1,0.4-0.1,0.7-0.1,1.1c-0.1,0.7,0.2,1.3,0.8,1.7c0.6,0.3,1.2,0.6,1.8,0.8c0.5,0.2,1.1,0.4,1.6,0.6c0.9,0.4,1.3,1.1,1.3,2.1
		c-0.2-1.2-0.9-1.9-2-2.2c-0.7-0.2-1.4-0.3-2.1-0.5c-0.2-0.1-0.5-0.1-0.7-0.2c-1-0.4-1.5-1.2-1.3-2.2c0.1-0.9,0.3-1.7,0.5-2.5
		c0.3-1.3,0.2-2.6,0-3.8C40.3,61.9,40.3,61.7,40.4,61.4C40.3,61.4,40.4,61.4,40.4,61.4z"/>
	<path stroke="#000000" stroke-width="0.3034" stroke-miterlimit="10" d="M53.1,30c0.4-0.2,0.7-0.2,1,0c0.3,0.2,0.2,0.5,0.2,0.8
		c-0.1,0.6-0.3,1.2-0.4,1.8c-0.1,0.6,0.1,0.9,0.6,1c0.7,0.2,1.1,0.6,1.1,1.3c0,0.2,0,0.5,0,0.8c0-0.2-0.1-0.5-0.1-0.7
		c-0.1-0.7-0.4-0.9-1.1-1c-0.7-0.1-1-0.4-1-1.1c0-0.4,0.1-0.7,0.1-1.1c0-0.2,0-0.3,0-0.5c0-0.2-0.1-0.4-0.4-0.3
		c-0.3,0-0.5-0.2-0.6-0.5c-0.1-0.4-0.1-0.9-0.2-1.3c0-0.2-0.1-0.4-0.2-0.6c-0.5-1.1-1.1-1.4-2.2-1c0.5-0.4,1.1-0.4,1.7-0.1
		c0.7,0.4,1.1,1.1,1.3,1.9C53,29.5,53.1,29.8,53.1,30z"/>
	<path stroke="#000000" stroke-width="0.3034" stroke-miterlimit="10" d="M53.5,81.7c-0.5-1.3-0.8-2.7-0.9-4.2c-0.1-2-0.4-4-1.2-5.9
		c-0.3-0.8-0.5-1.6-0.6-2.5c0.2,1.2,0.7,2.2,1.3,3.3c1,1.8,1.2,3.7,1,5.7c-0.1,1.2,0,2.3,0.3,3.5C53.5,81.6,53.5,81.6,53.5,81.7z"/>
	<path d="M39.9,95.9c-0.1,0.2-0.2,0.5-0.2,0.8c-0.2,0-0.5,0-0.7,0c0-0.9,0-1.9,0-2.8c0.3,0,0.5,0,0.8,0c0,0.4,0,0.9,0,1.3
		c0,0,0.1,0.1,0.1,0.1c0.3-0.6,0.8-0.8,1.4-0.6c-0.2,0.2-0.3,0.3-0.5,0.5c-0.2,0.1-0.2,0.2-0.1,0.4c0.2,0.3,0.4,0.7,0.7,1.1
		c-0.3,0-0.7,0.1-0.9-0.1c-0.2-0.1-0.3-0.5-0.4-0.7C40,95.9,40,95.9,39.9,95.9z"/>
	<path stroke="#000000" stroke-width="0.3034" stroke-miterlimit="10" d="M22.5,54.5c0.7,1.4,1.1,2.8,1.3,4.3c0.1,0.5,0.1,1,0.2,1.5
		c0.1,0.6,0.4,1.2,0.8,1.7c0,0,0,0-0.1,0.1c-0.2-0.2-0.4-0.4-0.5-0.7c-0.7-1.2-1.1-2.4-1.4-3.8c-0.1-0.7-0.3-1.5-0.4-2.2
		C22.5,55.1,22.5,54.8,22.5,54.5z"/>
	<path d="M49.3,96.7c-0.3,0-0.5,0-0.8,0c0-0.4,0-0.7,0-1.1c0-0.2,0-0.4-0.3-0.4c-0.2,0-0.3,0.2-0.3,0.4c0,0.3,0,0.7,0,1
		c-0.3,0-0.5,0-0.8,0c0-0.7,0-1.3,0-2c0.5-0.1,0.7-0.1,0.7,0.1c0.3-0.1,0.5-0.2,0.8-0.2c0.4,0,0.6,0.2,0.6,0.6
		C49.4,95.7,49.3,96.2,49.3,96.7z"/>
	<path d="M57.8,96.2c-0.4,0.6-1.2,0.8-1.8,0.5c-0.5-0.2-0.7-0.8-0.5-1.4c0.2-0.5,0.8-0.8,1.4-0.7c0.6,0.1,0.9,0.5,0.9,1.3
		c-0.5,0-1,0-1.5,0c0.1,0.4,0.3,0.5,0.6,0.3C57.2,96,57.5,96.2,57.8,96.2z M56.3,95.5c0.2,0,0.5,0,0.7,0c0-0.3-0.1-0.4-0.4-0.4
		C56.4,95.1,56.3,95.2,56.3,95.5z"/>
	<path d="M43.7,95.9c0.1,0.4,0.3,0.5,0.5,0.4c0.3-0.2,0.6-0.1,0.9-0.1c-0.1,0.6-1,0.7-1.6,0.5c-0.5-0.2-0.8-0.7-0.6-1.3
		c0.1-0.6,0.7-0.9,1.4-0.8c0.6,0.1,0.9,0.5,0.9,1.3C44.7,95.9,44.2,95.9,43.7,95.9z M44.4,95.5c0-0.3-0.1-0.4-0.4-0.4
		c-0.2,0-0.4,0.1-0.3,0.4C44,95.5,44.2,95.5,44.4,95.5z"/>
	<path d="M53.6,96.7c-0.3,0-0.5,0-0.8,0c0-0.4,0-0.7,0-1.1c0-0.2,0-0.4-0.3-0.4c-0.3,0-0.3,0.2-0.3,0.4c0,0.3,0,0.7,0,1.1
		c-0.3,0-0.5,0-0.8,0c0-0.7,0-1.3,0-2c0.5-0.1,0.6-0.1,0.8,0.2c0.1-0.1,0.2-0.1,0.3-0.2c0.5-0.3,1.1,0,1.1,0.6c0,0.1,0,0.2,0,0.3
		C53.6,95.9,53.6,96.3,53.6,96.7z"/>
	<path stroke="#000000" stroke-width="0.3034" stroke-miterlimit="10" d="M54.9,39.6c-0.3,0.9-0.5,1.9-1,2.8
		c-0.4,0.7-0.5,1.5-0.6,2.3c0,0.1,0,0.1-0.1,0.2c-0.1-0.6-0.1-1.2-0.2-1.8c0,0,0-0.1,0-0.1c-0.1-0.7,0-1.2,0.6-1.7
		c0.4-0.3,0.6-0.8,0.8-1.2C54.6,39.9,54.7,39.7,54.9,39.6C54.8,39.6,54.9,39.6,54.9,39.6z"/>
	<path stroke="#000000" stroke-width="0.3034" stroke-miterlimit="10" d="M74.7,4.7c0.5,0.1,1,0.2,1.5,0.3c6.5,1.5,12.4,4.2,18,7.9
		c0.1,0,0.1,0.1,0.2,0.2c-0.1-0.1-0.2-0.1-0.3-0.2c-4.2-2.7-8.7-5-13.4-6.5C78.6,5.6,76.7,5.2,74.7,4.7C74.7,4.7,74.7,4.7,74.7,4.7z
		"/>
	<path stroke="#000000" stroke-width="0.3034" stroke-miterlimit="10" d="M41.3,37.6c-0.1-0.8-0.1-1.6-0.4-2.4
		c-0.3,0.1-0.5,0.3-0.7,0.3c-0.2,0-0.4-0.1-0.6-0.3c-0.6-0.4-1.2-0.9-2-1c0,0,0-0.1,0-0.1c0.3,0,0.5,0.1,0.8,0.1
		c0.5,0.1,0.9,0.3,1.4,0.5c0.1,0,0.2,0,0.4-0.1c0.1,0,0.3-0.2,0.4-0.1c0.5,0.1,0.9,0.4,0.9,1c0,0.7-0.1,1.3-0.1,2
		C41.3,37.6,41.3,37.6,41.3,37.6z"/>
	<path stroke="#000000" stroke-width="0.3034" stroke-miterlimit="10" d="M95,11.9c-5.7-3.6-11.7-6.4-18.3-7.9
		c0.8-0.1,6.7,1.9,9.5,3.1C89.3,8.3,92.2,10,95,11.9z"/>
	<path d="M59.8,96.7c0-0.9,0-1.9,0-2.8c0.2,0,0.5,0,0.7,0c0,0.9,0,1.9,0,2.8C60.3,96.7,60.1,96.7,59.8,96.7z"/>
	<path stroke="#000000" stroke-width="0.3034" stroke-miterlimit="10" d="M91.2,10c-4.1-2.2-8.4-4.1-12.9-5.3
		C82.9,5.8,87.2,7.6,91.2,10z"/>
	<path stroke="#000000" stroke-width="0.3034" stroke-miterlimit="10" d="M32.9,38.3c0,0.1,0,0.2,0,0.3c-0.3,0.3-0.6,0.5-0.9,0.8
		c-0.2-0.3-0.4-0.7-0.7-1.1c0.4-0.1,0.7-0.3,0.9-0.8C32.4,37.8,32.4,38.3,32.9,38.3C32.9,38.3,32.9,38.3,32.9,38.3z"/>
	<path stroke="#000000" stroke-width="0.3034" stroke-miterlimit="10" d="M40.4,81.7c0,0.3-0.2,0.6-0.5,0.6c-0.3,0-0.5-0.2-0.5-0.4
		c0-0.3,0.3-0.7,0.6-0.7C40.3,81.2,40.4,81.4,40.4,81.7z"/>
</g>
</svg>
