<?xml version="1.0" encoding="utf-8"?>
<!-- Generator: Adobe Illustrator 18.1.1, SVG Export Plug-In . SVG Version: 6.00 Build 0)  -->
<svg version="1.1" id="Layer_1" xmlns="http://www.w3.org/2000/svg" xmlns:xlink="http://www.w3.org/1999/xlink" x="0px" y="0px"
	 viewBox="0 0 36.8 36.8" enable-background="new 0 0 36.8 36.8" xml:space="preserve">
<path fill="#8DC63F" d="M24.9,12.4c-0.7,0-1.4,0-2.1,0c-0.4,0-0.6,0.3-0.6,0.7c0,0.3,0,0.7,0,1c0,0.3,0,0.6,0,0.9c0,0,0,0,0,0.1
	c0,0.4,0.3,0.7,0.7,0.7c0.7,0,1.3,0,2,0c0.4,0,0.7-0.3,0.7-0.7c0-0.7,0-1.3,0-2C25.6,12.6,25.3,12.4,24.9,12.4z"/>
<path fill="#8DC63F" d="M18.7,22.8c1.9,0,3.5-1.6,3.5-3.5c0-1.9-1.6-3.5-3.5-3.5c-2,0-3.5,1.5-3.5,3.5
	C15.1,21.2,16.7,22.8,18.7,22.8z"/>
<path fill="#8DC63F" d="M24.8,17.8c-0.2,0-0.5,0-0.7,0c0.9,3.8-1.9,6.9-5.2,7.1c-1.5,0.1-2.8-0.4-4-1.4c-1.7-1.5-2.3-3.5-1.8-5.7
	c-0.5,0-0.9,0-1.4,0c0,0.1,0,0.2,0,0.3c0,2.4,0,4.9,0,7.3c0,0.5,0.1,0.6,0.6,0.6c4.2,0,8.4,0,12.6,0c0.5,0,0.6-0.1,0.6-0.6
	c0-2.4,0-4.9,0-7.3c0-0.1,0-0.2,0-0.3C25.3,17.8,25.1,17.8,24.8,17.8z"/>
<path fill="#8DC63F" d="M18.6,2.2c-9.4,0-17,7.6-17,17s7.6,17,17,17s17-7.6,17-17S28,2.2,18.6,2.2z M27.7,26.2
	c0,1.2-0.9,2.1-2.1,2.1c-4.6,0-9.3,0-13.9,0c-1.2,0-2.2-1-2.2-2.2c0-4.6,0-9.2,0-13.9c0-1.2,1-2.2,2.2-2.2c2.3,0,4.6,0,6.9,0
	c2.3,0,4.6,0,7,0c1.2,0,2.1,0.9,2.1,2.1C27.8,16.9,27.8,21.5,27.7,26.2z"/>
</svg>
