<?xml version="1.0" encoding="utf-8"?>
<!-- Generator: Adobe Illustrator 18.1.1, SVG Export Plug-In . SVG Version: 6.00 Build 0)  -->
<svg version="1.1" id="Layer_1" xmlns="http://www.w3.org/2000/svg" xmlns:xlink="http://www.w3.org/1999/xlink" x="0px" y="0px"
	 viewBox="0 0 36.8 36.8" enable-background="new 0 0 36.8 36.8" xml:space="preserve">
<path fill="#414042" d="M27.1,19.2c0-0.1,0-0.2,0-0.2c0-0.1,0-0.2,0-0.2c0-0.1,0-0.2-0.1-0.3c0,0-0.1-0.1-0.1-0.1
	c-0.1-0.1-0.1-0.2-0.2-0.3L12.6,3c-0.6-0.6-1.5-0.6-2.1-0.1C9.9,3.5,9.8,4.4,10.4,5l13.2,14L10.4,33c-0.6,0.6-0.5,1.6,0.1,2.1
	c0.3,0.3,0.7,0.4,1,0.4c0.4,0,0.8-0.2,1.1-0.5l14.2-15c0.1-0.1,0.1-0.2,0.2-0.3c0,0,0.1-0.1,0.1-0.1C27.1,19.5,27.1,19.4,27.1,19.2z
	"/>
</svg>
