<?xml version="1.0" encoding="utf-8"?>
<!-- Generator: Adobe Illustrator 18.1.1, SVG Export Plug-In . SVG Version: 6.00 Build 0)  -->
<svg version="1.1" id="Layer_1" xmlns="http://www.w3.org/2000/svg" xmlns:xlink="http://www.w3.org/1999/xlink" x="0px" y="0px"
	 viewBox="0 0 31.2 45.3" enable-background="new 0 0 31.2 45.3" xml:space="preserve">
<g>
	<g>
		<path fill="#8DC63F" d="M28.3,40.5V4.2c0-1.8-1.5-3.3-3.3-3.3H5.8c-1.8,0-3.3,1.5-3.3,3.3v36.3c0,1.8,1.5,3.3,3.3,3.3H25
			C26.8,43.9,28.3,42.4,28.3,40.5z M4.6,8.6h21.6v24.4H4.6L4.6,8.6z M5.8,3H25c0.6,0,1.2,0.5,1.2,1.2v2.2H4.6V4.2
			C4.6,3.6,5.1,3,5.8,3z M4.6,40.5v-5.3h21.6v5.3c0,0.6-0.5,1.2-1.2,1.2H5.8C5.1,41.7,4.6,41.2,4.6,40.5z"/>
		<path fill="#8DC63F" d="M17.6,37.5h-4.4c-0.6,0-1.1,0.5-1.1,1.1c0,0.6,0.5,1.1,1.1,1.1h4.4c0.6,0,1.1-0.5,1.1-1.1
			C18.6,38,18.2,37.5,17.6,37.5z"/>
	</g>
</g>
</svg>
