<?xml version="1.0" encoding="utf-8"?>
<!-- Generator: Adobe Illustrator 18.1.1, SVG Export Plug-In . SVG Version: 6.00 Build 0)  -->
<svg version="1.1" id="Layer_1" xmlns="http://www.w3.org/2000/svg" xmlns:xlink="http://www.w3.org/1999/xlink" x="0px" y="0px"
	 viewBox="0 0 31.2 45.3" enable-background="new 0 0 31.2 45.3" xml:space="preserve">
<g>
	<g>
		<path fill="#FFFFFF" d="M28.3,40.2V4.2c0-1.8-1.5-3.3-3.3-3.3H6c-1.8,0-3.3,1.5-3.3,3.3v35.9c0,1.8,1.5,3.3,3.3,3.3h19
			C26.8,43.5,28.3,42,28.3,40.2z M4.8,8.6h21.3v24.2H4.8L4.8,8.6z M6,3.1h19c0.6,0,1.2,0.5,1.2,1.2v2.2H4.8V4.2
			C4.8,3.6,5.4,3.1,6,3.1z M4.8,40.2v-5.3h21.3v5.3c0,0.6-0.5,1.2-1.2,1.2H6C5.4,41.3,4.8,40.8,4.8,40.2z"/>
		<path fill="#FFFFFF" d="M17.7,37.1h-4.3c-0.6,0-1.1,0.5-1.1,1.1s0.5,1.1,1.1,1.1h4.3c0.6,0,1.1-0.5,1.1-1.1
			C18.7,37.6,18.3,37.1,17.7,37.1z"/>
	</g>
</g>
</svg>
