<?xml version="1.0" encoding="utf-8"?>
<!-- Generator: Adobe Illustrator 18.1.1, SVG Export Plug-In . SVG Version: 6.00 Build 0)  -->
<svg version="1.1" id="Layer_1" xmlns="http://www.w3.org/2000/svg" xmlns:xlink="http://www.w3.org/1999/xlink" x="0px" y="0px"
	 viewBox="0 0 36.8 36.8" enable-background="new 0 0 36.8 36.8" xml:space="preserve">
<path fill="#8DC63F" d="M18.6,2.2c-9.4,0-17,7.6-17,17s7.6,17,17,17s17-7.6,17-17S28,2.2,18.6,2.2z M29.4,26l-3.2,0
	c0,0-0.7,0.1-1.6-0.5c-1.2-0.8-2.3-2.9-3.2-2.7c-0.9,0.3-0.9,2.2-0.9,2.2s0,0.4-0.2,0.6c-0.2,0.2-0.6,0.3-0.6,0.3h-1.4
	c0,0-3.1,0.2-5.9-2.7c-3-3.1-5.7-9.4-5.7-9.4s-0.2-0.4,0-0.6C7,13.1,7.5,13,7.5,13l3.4,0c0,0,0.3,0.1,0.6,0.2
	c0.2,0.1,0.3,0.4,0.3,0.4s0.6,1.4,1.3,2.6c1.4,2.5,2.1,3,2.6,2.7c0.7-0.4,0.5-3.5,0.5-3.5s0-1.1-0.4-1.6c-0.3-0.4-0.8-0.5-1.1-0.5
	c-0.2,0,0.1-0.5,0.5-0.7c0.6-0.3,1.7-0.3,3-0.3c1,0,1.3,0.1,1.7,0.2c1.2,0.3,0.8,1.4,0.8,4c0,0.8-0.2,2,0.5,2.4
	c0.3,0.2,0.9,0,2.5-2.7c0.8-1.3,1.3-2.8,1.3-2.8s0.1-0.3,0.3-0.4c0.2-0.1,0.5-0.1,0.5-0.1l3.6,0c0,0,1.1-0.1,1.2,0.4
	c0.2,0.5-0.4,1.7-1.9,3.6c-2.4,3.2-2.7,2.9-0.7,4.8c1.9,1.8,2.3,2.6,2.4,2.7C31.1,25.8,29.4,26,29.4,26z"/>
</svg>
